<svg xmlns="http://www.w3.org/2000/svg" viewBox="0 0 1920 1080">
<defs>
  <radialGradient id="glow" cx="22%" cy="18%" r="80%">
    <stop offset="0%" stop-color="#1E3A5F" stop-opacity="0.55"/>
    <stop offset="55%" stop-color="#1E3A5F" stop-opacity="0.0"/>
  </radialGradient>
</defs>
<rect width="1920" height="1080" fill="#16202C"/>
<rect width="1920" height="1080" fill="url(#glow)"/>
<polygon points="-39.8,-115.0 -79.7,-92.0 -79.7,-46.0 -39.8,-23.0 -0.0,-46.0 0.0,-92.0" fill="none" stroke="#2E4156" stroke-width="1.1" opacity="0.5"/>
<polygon points="39.8,-115.0 -0.0,-92.0 0.0,-46.0 39.8,-23.0 79.7,-46.0 79.7,-92.0" fill="none" stroke="#2E4156" stroke-width="1.1" opacity="0.5"/>
<polygon points="119.5,-115.0 79.7,-92.0 79.7,-46.0 119.5,-23.0 159.3,-46.0 159.3,-92.0" fill="none" stroke="#2E4156" stroke-width="1.1" opacity="0.5"/>
<polygon points="199.2,-115.0 159.3,-92.0 159.3,-46.0 199.2,-23.0 239.0,-46.0 239.0,-92.0" fill="none" stroke="#2E4156" stroke-width="1.1" opacity="0.5"/>
<polygon points="278.9,-115.0 239.0,-92.0 239.0,-46.0 278.9,-23.0 318.7,-46.0 318.7,-92.0" fill="none" stroke="#2E4156" stroke-width="1.1" opacity="0.5"/>
<polygon points="358.5,-114.0 319.6,-91.5 319.6,-46.5 358.5,-24.0 397.5,-46.5 397.5,-91.5" fill="none" stroke="#E69F00" stroke-width="1.6" opacity="0.29"/>
<polygon points="358.5,-115.0 318.7,-92.0 318.7,-46.0 358.5,-23.0 398.4,-46.0 398.4,-92.0" fill="none" stroke="#2E4156" stroke-width="1.1" opacity="0.5"/>
<polygon points="438.2,-115.0 398.4,-92.0 398.4,-46.0 438.2,-23.0 478.0,-46.0 478.0,-92.0" fill="none" stroke="#2E4156" stroke-width="1.1" opacity="0.5"/>
<polygon points="517.9,-115.0 478.0,-92.0 478.0,-46.0 517.9,-23.0 557.7,-46.0 557.7,-92.0" fill="none" stroke="#2E4156" stroke-width="1.1" opacity="0.5"/>
<polygon points="597.6,-115.0 557.7,-92.0 557.7,-46.0 597.6,-23.0 637.4,-46.0 637.4,-92.0" fill="none" stroke="#2E4156" stroke-width="1.1" opacity="0.5"/>
<polygon points="677.2,-114.0 638.3,-91.5 638.3,-46.5 677.2,-24.0 716.2,-46.5 716.2,-91.5" fill="none" stroke="#E69F00" stroke-width="1.6" opacity="0.35"/>
<polygon points="677.2,-115.0 637.4,-92.0 637.4,-46.0 677.2,-23.0 717.1,-46.0 717.1,-92.0" fill="none" stroke="#2E4156" stroke-width="1.1" opacity="0.5"/>
<polygon points="756.9,-115.0 717.1,-92.0 717.1,-46.0 756.9,-23.0 796.7,-46.0 796.7,-92.0" fill="none" stroke="#2E4156" stroke-width="1.1" opacity="0.5"/>
<polygon points="836.6,-115.0 796.7,-92.0 796.7,-46.0 836.6,-23.0 876.4,-46.0 876.4,-92.0" fill="none" stroke="#2E4156" stroke-width="1.1" opacity="0.5"/>
<polygon points="916.3,-115.0 876.4,-92.0 876.4,-46.0 916.3,-23.0 956.1,-46.0 956.1,-92.0" fill="none" stroke="#2E4156" stroke-width="1.1" opacity="0.5"/>
<polygon points="995.9,-115.0 956.1,-92.0 956.1,-46.0 995.9,-23.0 1035.8,-46.0 1035.8,-92.0" fill="none" stroke="#2E4156" stroke-width="1.1" opacity="0.5"/>
<polygon points="1075.6,-115.0 1035.8,-92.0 1035.8,-46.0 1075.6,-23.0 1115.4,-46.0 1115.4,-92.0" fill="none" stroke="#2E4156" stroke-width="1.1" opacity="0.5"/>
<polygon points="1155.3,-114.0 1116.3,-91.5 1116.3,-46.5 1155.3,-24.0 1194.2,-46.5 1194.2,-91.5" fill="none" stroke="#E69F00" stroke-width="1.6" opacity="0.26"/>
<polygon points="1155.3,-115.0 1115.4,-92.0 1115.4,-46.0 1155.3,-23.0 1195.1,-46.0 1195.1,-92.0" fill="none" stroke="#2E4156" stroke-width="1.1" opacity="0.5"/>
<polygon points="1235.0,-114.0 1196.0,-91.5 1196.0,-46.5 1235.0,-24.0 1273.9,-46.5 1273.9,-91.5" fill="none" stroke="#E69F00" stroke-width="1.6" opacity="0.26"/>
<polygon points="1235.0,-115.0 1195.1,-92.0 1195.1,-46.0 1235.0,-23.0 1274.8,-46.0 1274.8,-92.0" fill="none" stroke="#2E4156" stroke-width="1.1" opacity="0.5"/>
<polygon points="1314.6,-115.0 1274.8,-92.0 1274.8,-46.0 1314.6,-23.0 1354.5,-46.0 1354.5,-92.0" fill="none" stroke="#2E4156" stroke-width="1.1" opacity="0.5"/>
<polygon points="1394.3,-115.0 1354.5,-92.0 1354.5,-46.0 1394.3,-23.0 1434.1,-46.0 1434.1,-92.0" fill="none" stroke="#2E4156" stroke-width="1.1" opacity="0.5"/>
<polygon points="1474.0,-114.0 1435.0,-91.5 1435.0,-46.5 1474.0,-24.0 1512.9,-46.5 1512.9,-91.5" fill="#56B4E9" opacity="0.05" stroke="none"/>
<polygon points="1474.0,-115.0 1434.1,-92.0 1434.1,-46.0 1474.0,-23.0 1513.8,-46.0 1513.8,-92.0" fill="none" stroke="#2E4156" stroke-width="1.1" opacity="0.5"/>
<polygon points="1553.6,-115.0 1513.8,-92.0 1513.8,-46.0 1553.6,-23.0 1593.5,-46.0 1593.5,-92.0" fill="none" stroke="#2E4156" stroke-width="1.1" opacity="0.5"/>
<polygon points="1633.3,-115.0 1593.5,-92.0 1593.5,-46.0 1633.3,-23.0 1673.2,-46.0 1673.2,-92.0" fill="none" stroke="#2E4156" stroke-width="1.1" opacity="0.5"/>
<polygon points="1713.0,-115.0 1673.2,-92.0 1673.2,-46.0 1713.0,-23.0 1752.8,-46.0 1752.8,-92.0" fill="none" stroke="#2E4156" stroke-width="1.1" opacity="0.5"/>
<polygon points="1792.7,-115.0 1752.8,-92.0 1752.8,-46.0 1792.7,-23.0 1832.5,-46.0 1832.5,-92.0" fill="none" stroke="#2E4156" stroke-width="1.1" opacity="0.5"/>
<polygon points="1872.3,-114.0 1833.4,-91.5 1833.4,-46.5 1872.3,-24.0 1911.3,-46.5 1911.3,-91.5" fill="none" stroke="#E69F00" stroke-width="1.6" opacity="0.32"/>
<polygon points="1872.3,-115.0 1832.5,-92.0 1832.5,-46.0 1872.3,-23.0 1912.2,-46.0 1912.2,-92.0" fill="none" stroke="#2E4156" stroke-width="1.1" opacity="0.5"/>
<polygon points="1952.0,-115.0 1912.2,-92.0 1912.2,-46.0 1952.0,-23.0 1991.9,-46.0 1991.9,-92.0" fill="none" stroke="#2E4156" stroke-width="1.1" opacity="0.5"/>
<polygon points="2031.7,-115.0 1991.9,-92.0 1991.9,-46.0 2031.7,-23.0 2071.5,-46.0 2071.5,-92.0" fill="none" stroke="#2E4156" stroke-width="1.1" opacity="0.5"/>
<polygon points="2111.4,-115.0 2071.5,-92.0 2071.5,-46.0 2111.4,-23.0 2151.2,-46.0 2151.2,-92.0" fill="none" stroke="#2E4156" stroke-width="1.1" opacity="0.5"/>
<polygon points="-79.7,-45.0 -118.6,-22.5 -118.6,22.5 -79.7,45.0 -40.7,22.5 -40.7,-22.5" fill="none" stroke="#E69F00" stroke-width="1.6" opacity="0.32"/>
<polygon points="-79.7,-46.0 -119.5,-23.0 -119.5,23.0 -79.7,46.0 -39.8,23.0 -39.8,-23.0" fill="none" stroke="#2E4156" stroke-width="1.1" opacity="0.5"/>
<polygon points="0.0,-46.0 -39.8,-23.0 -39.8,23.0 -0.0,46.0 39.8,23.0 39.8,-23.0" fill="none" stroke="#2E4156" stroke-width="1.1" opacity="0.5"/>
<polygon points="79.7,-46.0 39.8,-23.0 39.8,23.0 79.7,46.0 119.5,23.0 119.5,-23.0" fill="none" stroke="#2E4156" stroke-width="1.1" opacity="0.5"/>
<polygon points="159.3,-46.0 119.5,-23.0 119.5,23.0 159.3,46.0 199.2,23.0 199.2,-23.0" fill="none" stroke="#2E4156" stroke-width="1.1" opacity="0.5"/>
<polygon points="239.0,-46.0 199.2,-23.0 199.2,23.0 239.0,46.0 278.9,23.0 278.9,-23.0" fill="none" stroke="#2E4156" stroke-width="1.1" opacity="0.5"/>
<polygon points="318.7,-46.0 278.9,-23.0 278.9,23.0 318.7,46.0 358.5,23.0 358.5,-23.0" fill="none" stroke="#2E4156" stroke-width="1.1" opacity="0.5"/>
<polygon points="398.4,-46.0 358.5,-23.0 358.5,23.0 398.4,46.0 438.2,23.0 438.2,-23.0" fill="none" stroke="#2E4156" stroke-width="1.1" opacity="0.5"/>
<polygon points="478.0,-46.0 438.2,-23.0 438.2,23.0 478.0,46.0 517.9,23.0 517.9,-23.0" fill="none" stroke="#2E4156" stroke-width="1.1" opacity="0.5"/>
<polygon points="557.7,-46.0 517.9,-23.0 517.9,23.0 557.7,46.0 597.6,23.0 597.6,-23.0" fill="none" stroke="#2E4156" stroke-width="1.1" opacity="0.5"/>
<polygon points="637.4,-46.0 597.6,-23.0 597.6,23.0 637.4,46.0 677.2,23.0 677.2,-23.0" fill="none" stroke="#2E4156" stroke-width="1.1" opacity="0.5"/>
<polygon points="717.1,-46.0 677.2,-23.0 677.2,23.0 717.1,46.0 756.9,23.0 756.9,-23.0" fill="none" stroke="#2E4156" stroke-width="1.1" opacity="0.5"/>
<polygon points="796.7,-45.0 757.8,-22.5 757.8,22.5 796.7,45.0 835.7,22.5 835.7,-22.5" fill="none" stroke="#56B4E9" stroke-width="1.4" opacity="0.27"/>
<polygon points="796.7,-46.0 756.9,-23.0 756.9,23.0 796.7,46.0 836.6,23.0 836.6,-23.0" fill="none" stroke="#2E4156" stroke-width="1.1" opacity="0.5"/>
<polygon points="876.4,-46.0 836.6,-23.0 836.6,23.0 876.4,46.0 916.3,23.0 916.3,-23.0" fill="none" stroke="#2E4156" stroke-width="1.1" opacity="0.5"/>
<polygon points="956.1,-46.0 916.3,-23.0 916.3,23.0 956.1,46.0 995.9,23.0 995.9,-23.0" fill="none" stroke="#2E4156" stroke-width="1.1" opacity="0.5"/>
<polygon points="1035.8,-46.0 995.9,-23.0 995.9,23.0 1035.8,46.0 1075.6,23.0 1075.6,-23.0" fill="none" stroke="#2E4156" stroke-width="1.1" opacity="0.5"/>
<polygon points="1115.4,-46.0 1075.6,-23.0 1075.6,23.0 1115.4,46.0 1155.3,23.0 1155.3,-23.0" fill="none" stroke="#2E4156" stroke-width="1.1" opacity="0.5"/>
<polygon points="1195.1,-46.0 1155.3,-23.0 1155.3,23.0 1195.1,46.0 1235.0,23.0 1235.0,-23.0" fill="none" stroke="#2E4156" stroke-width="1.1" opacity="0.5"/>
<polygon points="1274.8,-46.0 1235.0,-23.0 1235.0,23.0 1274.8,46.0 1314.6,23.0 1314.6,-23.0" fill="none" stroke="#2E4156" stroke-width="1.1" opacity="0.5"/>
<polygon points="1354.5,-46.0 1314.6,-23.0 1314.6,23.0 1354.5,46.0 1394.3,23.0 1394.3,-23.0" fill="none" stroke="#2E4156" stroke-width="1.1" opacity="0.5"/>
<polygon points="1434.1,-46.0 1394.3,-23.0 1394.3,23.0 1434.1,46.0 1474.0,23.0 1474.0,-23.0" fill="none" stroke="#2E4156" stroke-width="1.1" opacity="0.5"/>
<polygon points="1513.8,-46.0 1474.0,-23.0 1474.0,23.0 1513.8,46.0 1553.6,23.0 1553.6,-23.0" fill="none" stroke="#2E4156" stroke-width="1.1" opacity="0.5"/>
<polygon points="1593.5,-46.0 1553.6,-23.0 1553.6,23.0 1593.5,46.0 1633.3,23.0 1633.3,-23.0" fill="none" stroke="#2E4156" stroke-width="1.1" opacity="0.5"/>
<polygon points="1673.2,-45.0 1634.2,-22.5 1634.2,22.5 1673.2,45.0 1712.1,22.5 1712.1,-22.5" fill="#56B4E9" opacity="0.05" stroke="none"/>
<polygon points="1673.2,-46.0 1633.3,-23.0 1633.3,23.0 1673.2,46.0 1713.0,23.0 1713.0,-23.0" fill="none" stroke="#2E4156" stroke-width="1.1" opacity="0.5"/>
<polygon points="1752.8,-46.0 1713.0,-23.0 1713.0,23.0 1752.8,46.0 1792.7,23.0 1792.7,-23.0" fill="none" stroke="#2E4156" stroke-width="1.1" opacity="0.5"/>
<polygon points="1832.5,-46.0 1792.7,-23.0 1792.7,23.0 1832.5,46.0 1872.3,23.0 1872.3,-23.0" fill="none" stroke="#2E4156" stroke-width="1.1" opacity="0.5"/>
<polygon points="1912.2,-46.0 1872.3,-23.0 1872.3,23.0 1912.2,46.0 1952.0,23.0 1952.0,-23.0" fill="none" stroke="#2E4156" stroke-width="1.1" opacity="0.5"/>
<polygon points="1991.9,-46.0 1952.0,-23.0 1952.0,23.0 1991.9,46.0 2031.7,23.0 2031.7,-23.0" fill="none" stroke="#2E4156" stroke-width="1.1" opacity="0.5"/>
<polygon points="2071.5,-46.0 2031.7,-23.0 2031.7,23.0 2071.5,46.0 2111.4,23.0 2111.4,-23.0" fill="none" stroke="#2E4156" stroke-width="1.1" opacity="0.5"/>
<polygon points="-39.8,23.0 -79.7,46.0 -79.7,92.0 -39.8,115.0 -0.0,92.0 0.0,46.0" fill="none" stroke="#2E4156" stroke-width="1.1" opacity="0.5"/>
<polygon points="39.8,23.0 -0.0,46.0 0.0,92.0 39.8,115.0 79.7,92.0 79.7,46.0" fill="none" stroke="#2E4156" stroke-width="1.1" opacity="0.5"/>
<polygon points="119.5,23.0 79.7,46.0 79.7,92.0 119.5,115.0 159.3,92.0 159.3,46.0" fill="none" stroke="#2E4156" stroke-width="1.1" opacity="0.5"/>
<polygon points="199.2,23.0 159.3,46.0 159.3,92.0 199.2,115.0 239.0,92.0 239.0,46.0" fill="none" stroke="#2E4156" stroke-width="1.1" opacity="0.5"/>
<polygon points="278.9,23.0 239.0,46.0 239.0,92.0 278.9,115.0 318.7,92.0 318.7,46.0" fill="none" stroke="#2E4156" stroke-width="1.1" opacity="0.5"/>
<polygon points="358.5,23.0 318.7,46.0 318.7,92.0 358.5,115.0 398.4,92.0 398.4,46.0" fill="none" stroke="#2E4156" stroke-width="1.1" opacity="0.5"/>
<polygon points="438.2,23.0 398.4,46.0 398.4,92.0 438.2,115.0 478.0,92.0 478.0,46.0" fill="none" stroke="#2E4156" stroke-width="1.1" opacity="0.5"/>
<polygon points="517.9,23.0 478.0,46.0 478.0,92.0 517.9,115.0 557.7,92.0 557.7,46.0" fill="none" stroke="#2E4156" stroke-width="1.1" opacity="0.5"/>
<polygon points="597.6,23.0 557.7,46.0 557.7,92.0 597.6,115.0 637.4,92.0 637.4,46.0" fill="none" stroke="#2E4156" stroke-width="1.1" opacity="0.5"/>
<polygon points="677.2,23.0 637.4,46.0 637.4,92.0 677.2,115.0 717.1,92.0 717.1,46.0" fill="none" stroke="#2E4156" stroke-width="1.1" opacity="0.5"/>
<polygon points="756.9,23.0 717.1,46.0 717.1,92.0 756.9,115.0 796.7,92.0 796.7,46.0" fill="none" stroke="#2E4156" stroke-width="1.1" opacity="0.5"/>
<polygon points="836.6,23.0 796.7,46.0 796.7,92.0 836.6,115.0 876.4,92.0 876.4,46.0" fill="none" stroke="#2E4156" stroke-width="1.1" opacity="0.5"/>
<polygon points="916.3,23.0 876.4,46.0 876.4,92.0 916.3,115.0 956.1,92.0 956.1,46.0" fill="none" stroke="#2E4156" stroke-width="1.1" opacity="0.5"/>
<polygon points="995.9,23.0 956.1,46.0 956.1,92.0 995.9,115.0 1035.8,92.0 1035.8,46.0" fill="none" stroke="#2E4156" stroke-width="1.1" opacity="0.5"/>
<polygon points="1075.6,23.0 1035.8,46.0 1035.8,92.0 1075.6,115.0 1115.4,92.0 1115.4,46.0" fill="none" stroke="#2E4156" stroke-width="1.1" opacity="0.5"/>
<polygon points="1155.3,23.0 1115.4,46.0 1115.4,92.0 1155.3,115.0 1195.1,92.0 1195.1,46.0" fill="none" stroke="#2E4156" stroke-width="1.1" opacity="0.5"/>
<polygon points="1235.0,23.0 1195.1,46.0 1195.1,92.0 1235.0,115.0 1274.8,92.0 1274.8,46.0" fill="none" stroke="#2E4156" stroke-width="1.1" opacity="0.5"/>
<polygon points="1314.6,23.0 1274.8,46.0 1274.8,92.0 1314.6,115.0 1354.5,92.0 1354.5,46.0" fill="none" stroke="#2E4156" stroke-width="1.1" opacity="0.5"/>
<polygon points="1394.3,23.0 1354.5,46.0 1354.5,92.0 1394.3,115.0 1434.1,92.0 1434.1,46.0" fill="none" stroke="#2E4156" stroke-width="1.1" opacity="0.5"/>
<polygon points="1474.0,23.0 1434.1,46.0 1434.1,92.0 1474.0,115.0 1513.8,92.0 1513.8,46.0" fill="none" stroke="#2E4156" stroke-width="1.1" opacity="0.5"/>
<polygon points="1553.6,23.0 1513.8,46.0 1513.8,92.0 1553.6,115.0 1593.5,92.0 1593.5,46.0" fill="none" stroke="#2E4156" stroke-width="1.1" opacity="0.5"/>
<polygon points="1633.3,23.0 1593.5,46.0 1593.5,92.0 1633.3,115.0 1673.2,92.0 1673.2,46.0" fill="none" stroke="#2E4156" stroke-width="1.1" opacity="0.5"/>
<polygon points="1713.0,23.0 1673.2,46.0 1673.2,92.0 1713.0,115.0 1752.8,92.0 1752.8,46.0" fill="none" stroke="#2E4156" stroke-width="1.1" opacity="0.5"/>
<polygon points="1792.7,23.0 1752.8,46.0 1752.8,92.0 1792.7,115.0 1832.5,92.0 1832.5,46.0" fill="none" stroke="#2E4156" stroke-width="1.1" opacity="0.5"/>
<polygon points="1872.3,23.0 1832.5,46.0 1832.5,92.0 1872.3,115.0 1912.2,92.0 1912.2,46.0" fill="none" stroke="#2E4156" stroke-width="1.1" opacity="0.5"/>
<polygon points="1952.0,23.0 1912.2,46.0 1912.2,92.0 1952.0,115.0 1991.9,92.0 1991.9,46.0" fill="none" stroke="#2E4156" stroke-width="1.1" opacity="0.5"/>
<polygon points="2031.7,23.0 1991.9,46.0 1991.9,92.0 2031.7,115.0 2071.5,92.0 2071.5,46.0" fill="none" stroke="#2E4156" stroke-width="1.1" opacity="0.5"/>
<polygon points="2111.4,23.0 2071.5,46.0 2071.5,92.0 2111.4,115.0 2151.2,92.0 2151.2,46.0" fill="none" stroke="#2E4156" stroke-width="1.1" opacity="0.5"/>
<polygon points="-79.7,92.0 -119.5,115.0 -119.5,161.0 -79.7,184.0 -39.8,161.0 -39.8,115.0" fill="none" stroke="#2E4156" stroke-width="1.1" opacity="0.5"/>
<polygon points="0.0,92.0 -39.8,115.0 -39.8,161.0 -0.0,184.0 39.8,161.0 39.8,115.0" fill="none" stroke="#2E4156" stroke-width="1.1" opacity="0.5"/>
<polygon points="79.7,92.0 39.8,115.0 39.8,161.0 79.7,184.0 119.5,161.0 119.5,115.0" fill="none" stroke="#2E4156" stroke-width="1.1" opacity="0.5"/>
<polygon points="159.3,92.0 119.5,115.0 119.5,161.0 159.3,184.0 199.2,161.0 199.2,115.0" fill="none" stroke="#2E4156" stroke-width="1.1" opacity="0.5"/>
<polygon points="239.0,92.0 199.2,115.0 199.2,161.0 239.0,184.0 278.9,161.0 278.9,115.0" fill="none" stroke="#2E4156" stroke-width="1.1" opacity="0.5"/>
<polygon points="318.7,92.0 278.9,115.0 278.9,161.0 318.7,184.0 358.5,161.0 358.5,115.0" fill="none" stroke="#2E4156" stroke-width="1.1" opacity="0.5"/>
<polygon points="398.4,92.0 358.5,115.0 358.5,161.0 398.4,184.0 438.2,161.0 438.2,115.0" fill="none" stroke="#2E4156" stroke-width="1.1" opacity="0.5"/>
<polygon points="478.0,92.0 438.2,115.0 438.2,161.0 478.0,184.0 517.9,161.0 517.9,115.0" fill="none" stroke="#2E4156" stroke-width="1.1" opacity="0.5"/>
<polygon points="557.7,92.0 517.9,115.0 517.9,161.0 557.7,184.0 597.6,161.0 597.6,115.0" fill="none" stroke="#2E4156" stroke-width="1.1" opacity="0.5"/>
<polygon points="637.4,92.0 597.6,115.0 597.6,161.0 637.4,184.0 677.2,161.0 677.2,115.0" fill="none" stroke="#2E4156" stroke-width="1.1" opacity="0.5"/>
<polygon points="717.1,92.0 677.2,115.0 677.2,161.0 717.1,184.0 756.9,161.0 756.9,115.0" fill="none" stroke="#2E4156" stroke-width="1.1" opacity="0.5"/>
<polygon points="796.7,92.0 756.9,115.0 756.9,161.0 796.7,184.0 836.6,161.0 836.6,115.0" fill="none" stroke="#2E4156" stroke-width="1.1" opacity="0.5"/>
<polygon points="876.4,92.0 836.6,115.0 836.6,161.0 876.4,184.0 916.3,161.0 916.3,115.0" fill="none" stroke="#2E4156" stroke-width="1.1" opacity="0.5"/>
<polygon points="956.1,92.0 916.3,115.0 916.3,161.0 956.1,184.0 995.9,161.0 995.9,115.0" fill="none" stroke="#2E4156" stroke-width="1.1" opacity="0.5"/>
<polygon points="1035.8,92.0 995.9,115.0 995.9,161.0 1035.8,184.0 1075.6,161.0 1075.6,115.0" fill="none" stroke="#2E4156" stroke-width="1.1" opacity="0.5"/>
<polygon points="1115.4,92.0 1075.6,115.0 1075.6,161.0 1115.4,184.0 1155.3,161.0 1155.3,115.0" fill="none" stroke="#2E4156" stroke-width="1.1" opacity="0.5"/>
<polygon points="1195.1,92.0 1155.3,115.0 1155.3,161.0 1195.1,184.0 1235.0,161.0 1235.0,115.0" fill="none" stroke="#2E4156" stroke-width="1.1" opacity="0.5"/>
<polygon points="1274.8,92.0 1235.0,115.0 1235.0,161.0 1274.8,184.0 1314.6,161.0 1314.6,115.0" fill="none" stroke="#2E4156" stroke-width="1.1" opacity="0.5"/>
<polygon points="1354.5,92.0 1314.6,115.0 1314.6,161.0 1354.5,184.0 1394.3,161.0 1394.3,115.0" fill="none" stroke="#2E4156" stroke-width="1.1" opacity="0.5"/>
<polygon points="1434.1,92.0 1394.3,115.0 1394.3,161.0 1434.1,184.0 1474.0,161.0 1474.0,115.0" fill="none" stroke="#2E4156" stroke-width="1.1" opacity="0.5"/>
<polygon points="1513.8,92.0 1474.0,115.0 1474.0,161.0 1513.8,184.0 1553.6,161.0 1553.6,115.0" fill="none" stroke="#2E4156" stroke-width="1.1" opacity="0.5"/>
<polygon points="1593.5,92.0 1553.6,115.0 1553.6,161.0 1593.5,184.0 1633.3,161.0 1633.3,115.0" fill="none" stroke="#2E4156" stroke-width="1.1" opacity="0.5"/>
<polygon points="1673.2,92.0 1633.3,115.0 1633.3,161.0 1673.2,184.0 1713.0,161.0 1713.0,115.0" fill="none" stroke="#2E4156" stroke-width="1.1" opacity="0.5"/>
<polygon points="1752.8,92.0 1713.0,115.0 1713.0,161.0 1752.8,184.0 1792.7,161.0 1792.7,115.0" fill="none" stroke="#2E4156" stroke-width="1.1" opacity="0.5"/>
<polygon points="1832.5,93.0 1793.5,115.5 1793.5,160.5 1832.5,183.0 1871.5,160.5 1871.5,115.5" fill="#56B4E9" opacity="0.05" stroke="none"/>
<polygon points="1832.5,92.0 1792.7,115.0 1792.7,161.0 1832.5,184.0 1872.3,161.0 1872.3,115.0" fill="none" stroke="#2E4156" stroke-width="1.1" opacity="0.5"/>
<polygon points="1912.2,92.0 1872.3,115.0 1872.3,161.0 1912.2,184.0 1952.0,161.0 1952.0,115.0" fill="none" stroke="#2E4156" stroke-width="1.1" opacity="0.5"/>
<polygon points="1991.9,92.0 1952.0,115.0 1952.0,161.0 1991.9,184.0 2031.7,161.0 2031.7,115.0" fill="none" stroke="#2E4156" stroke-width="1.1" opacity="0.5"/>
<polygon points="2071.5,92.0 2031.7,115.0 2031.7,161.0 2071.5,184.0 2111.4,161.0 2111.4,115.0" fill="none" stroke="#2E4156" stroke-width="1.1" opacity="0.5"/>
<polygon points="-39.8,161.0 -79.7,184.0 -79.7,230.0 -39.8,253.0 -0.0,230.0 0.0,184.0" fill="none" stroke="#2E4156" stroke-width="1.1" opacity="0.5"/>
<polygon points="39.8,161.0 -0.0,184.0 0.0,230.0 39.8,253.0 79.7,230.0 79.7,184.0" fill="none" stroke="#2E4156" stroke-width="1.1" opacity="0.5"/>
<polygon points="119.5,161.0 79.7,184.0 79.7,230.0 119.5,253.0 159.3,230.0 159.3,184.0" fill="none" stroke="#2E4156" stroke-width="1.1" opacity="0.5"/>
<polygon points="199.2,161.0 159.3,184.0 159.3,230.0 199.2,253.0 239.0,230.0 239.0,184.0" fill="none" stroke="#2E4156" stroke-width="1.1" opacity="0.5"/>
<polygon points="278.9,161.0 239.0,184.0 239.0,230.0 278.9,253.0 318.7,230.0 318.7,184.0" fill="none" stroke="#2E4156" stroke-width="1.1" opacity="0.5"/>
<polygon points="358.5,161.0 318.7,184.0 318.7,230.0 358.5,253.0 398.4,230.0 398.4,184.0" fill="none" stroke="#2E4156" stroke-width="1.1" opacity="0.5"/>
<polygon points="438.2,162.0 399.2,184.5 399.2,229.5 438.2,252.0 477.2,229.5 477.2,184.5" fill="#56B4E9" opacity="0.05" stroke="none"/>
<polygon points="438.2,161.0 398.4,184.0 398.4,230.0 438.2,253.0 478.0,230.0 478.0,184.0" fill="none" stroke="#2E4156" stroke-width="1.1" opacity="0.5"/>
<polygon points="517.9,161.0 478.0,184.0 478.0,230.0 517.9,253.0 557.7,230.0 557.7,184.0" fill="none" stroke="#2E4156" stroke-width="1.1" opacity="0.5"/>
<polygon points="597.6,161.0 557.7,184.0 557.7,230.0 597.6,253.0 637.4,230.0 637.4,184.0" fill="none" stroke="#2E4156" stroke-width="1.1" opacity="0.5"/>
<polygon points="677.2,162.0 638.3,184.5 638.3,229.5 677.2,252.0 716.2,229.5 716.2,184.5" fill="none" stroke="#56B4E9" stroke-width="1.4" opacity="0.19"/>
<polygon points="677.2,161.0 637.4,184.0 637.4,230.0 677.2,253.0 717.1,230.0 717.1,184.0" fill="none" stroke="#2E4156" stroke-width="1.1" opacity="0.5"/>
<polygon points="756.9,161.0 717.1,184.0 717.1,230.0 756.9,253.0 796.7,230.0 796.7,184.0" fill="none" stroke="#2E4156" stroke-width="1.1" opacity="0.5"/>
<polygon points="836.6,161.0 796.7,184.0 796.7,230.0 836.6,253.0 876.4,230.0 876.4,184.0" fill="none" stroke="#2E4156" stroke-width="1.1" opacity="0.5"/>
<polygon points="916.3,162.0 877.3,184.5 877.3,229.5 916.3,252.0 955.2,229.5 955.2,184.5" fill="none" stroke="#56B4E9" stroke-width="1.4" opacity="0.13"/>
<polygon points="916.3,161.0 876.4,184.0 876.4,230.0 916.3,253.0 956.1,230.0 956.1,184.0" fill="none" stroke="#2E4156" stroke-width="1.1" opacity="0.5"/>
<polygon points="995.9,161.0 956.1,184.0 956.1,230.0 995.9,253.0 1035.8,230.0 1035.8,184.0" fill="none" stroke="#2E4156" stroke-width="1.1" opacity="0.5"/>
<polygon points="1075.6,162.0 1036.6,184.5 1036.6,229.5 1075.6,252.0 1114.6,229.5 1114.6,184.5" fill="none" stroke="#E69F00" stroke-width="1.6" opacity="0.22"/>
<polygon points="1075.6,161.0 1035.8,184.0 1035.8,230.0 1075.6,253.0 1115.4,230.0 1115.4,184.0" fill="none" stroke="#2E4156" stroke-width="1.1" opacity="0.5"/>
<polygon points="1155.3,161.0 1115.4,184.0 1115.4,230.0 1155.3,253.0 1195.1,230.0 1195.1,184.0" fill="none" stroke="#2E4156" stroke-width="1.1" opacity="0.5"/>
<polygon points="1235.0,161.0 1195.1,184.0 1195.1,230.0 1235.0,253.0 1274.8,230.0 1274.8,184.0" fill="none" stroke="#2E4156" stroke-width="1.1" opacity="0.5"/>
<polygon points="1314.6,161.0 1274.8,184.0 1274.8,230.0 1314.6,253.0 1354.5,230.0 1354.5,184.0" fill="none" stroke="#2E4156" stroke-width="1.1" opacity="0.5"/>
<polygon points="1394.3,161.0 1354.5,184.0 1354.5,230.0 1394.3,253.0 1434.1,230.0 1434.1,184.0" fill="none" stroke="#2E4156" stroke-width="1.1" opacity="0.5"/>
<polygon points="1474.0,161.0 1434.1,184.0 1434.1,230.0 1474.0,253.0 1513.8,230.0 1513.8,184.0" fill="none" stroke="#2E4156" stroke-width="1.1" opacity="0.5"/>
<polygon points="1553.6,161.0 1513.8,184.0 1513.8,230.0 1553.6,253.0 1593.5,230.0 1593.5,184.0" fill="none" stroke="#2E4156" stroke-width="1.1" opacity="0.5"/>
<polygon points="1633.3,161.0 1593.5,184.0 1593.5,230.0 1633.3,253.0 1673.2,230.0 1673.2,184.0" fill="none" stroke="#2E4156" stroke-width="1.1" opacity="0.5"/>
<polygon points="1713.0,161.0 1673.2,184.0 1673.2,230.0 1713.0,253.0 1752.8,230.0 1752.8,184.0" fill="none" stroke="#2E4156" stroke-width="1.1" opacity="0.5"/>
<polygon points="1792.7,162.0 1753.7,184.5 1753.7,229.5 1792.7,252.0 1831.6,229.5 1831.6,184.5" fill="#56B4E9" opacity="0.05" stroke="none"/>
<polygon points="1792.7,161.0 1752.8,184.0 1752.8,230.0 1792.7,253.0 1832.5,230.0 1832.5,184.0" fill="none" stroke="#2E4156" stroke-width="1.1" opacity="0.5"/>
<polygon points="1872.3,161.0 1832.5,184.0 1832.5,230.0 1872.3,253.0 1912.2,230.0 1912.2,184.0" fill="none" stroke="#2E4156" stroke-width="1.1" opacity="0.5"/>
<polygon points="1952.0,161.0 1912.2,184.0 1912.2,230.0 1952.0,253.0 1991.9,230.0 1991.9,184.0" fill="none" stroke="#2E4156" stroke-width="1.1" opacity="0.5"/>
<polygon points="2031.7,161.0 1991.9,184.0 1991.9,230.0 2031.7,253.0 2071.5,230.0 2071.5,184.0" fill="none" stroke="#2E4156" stroke-width="1.1" opacity="0.5"/>
<polygon points="2111.4,162.0 2072.4,184.5 2072.4,229.5 2111.4,252.0 2150.3,229.5 2150.3,184.5" fill="#56B4E9" opacity="0.05" stroke="none"/>
<polygon points="2111.4,161.0 2071.5,184.0 2071.5,230.0 2111.4,253.0 2151.2,230.0 2151.2,184.0" fill="none" stroke="#2E4156" stroke-width="1.1" opacity="0.5"/>
<polygon points="-79.7,230.0 -119.5,253.0 -119.5,299.0 -79.7,322.0 -39.8,299.0 -39.8,253.0" fill="none" stroke="#2E4156" stroke-width="1.1" opacity="0.5"/>
<polygon points="0.0,231.0 -39.0,253.5 -39.0,298.5 -0.0,321.0 39.0,298.5 39.0,253.5" fill="#56B4E9" opacity="0.05" stroke="none"/>
<polygon points="0.0,230.0 -39.8,253.0 -39.8,299.0 -0.0,322.0 39.8,299.0 39.8,253.0" fill="none" stroke="#2E4156" stroke-width="1.1" opacity="0.5"/>
<polygon points="79.7,230.0 39.8,253.0 39.8,299.0 79.7,322.0 119.5,299.0 119.5,253.0" fill="none" stroke="#2E4156" stroke-width="1.1" opacity="0.5"/>
<polygon points="159.3,230.0 119.5,253.0 119.5,299.0 159.3,322.0 199.2,299.0 199.2,253.0" fill="none" stroke="#2E4156" stroke-width="1.1" opacity="0.5"/>
<polygon points="239.0,230.0 199.2,253.0 199.2,299.0 239.0,322.0 278.9,299.0 278.9,253.0" fill="none" stroke="#2E4156" stroke-width="1.1" opacity="0.5"/>
<polygon points="318.7,230.0 278.9,253.0 278.9,299.0 318.7,322.0 358.5,299.0 358.5,253.0" fill="none" stroke="#2E4156" stroke-width="1.1" opacity="0.5"/>
<polygon points="398.4,230.0 358.5,253.0 358.5,299.0 398.4,322.0 438.2,299.0 438.2,253.0" fill="none" stroke="#2E4156" stroke-width="1.1" opacity="0.5"/>
<polygon points="478.0,230.0 438.2,253.0 438.2,299.0 478.0,322.0 517.9,299.0 517.9,253.0" fill="none" stroke="#2E4156" stroke-width="1.1" opacity="0.5"/>
<polygon points="557.7,230.0 517.9,253.0 517.9,299.0 557.7,322.0 597.6,299.0 597.6,253.0" fill="none" stroke="#2E4156" stroke-width="1.1" opacity="0.5"/>
<polygon points="637.4,231.0 598.4,253.5 598.4,298.5 637.4,321.0 676.4,298.5 676.4,253.5" fill="none" stroke="#E69F00" stroke-width="1.6" opacity="0.21"/>
<polygon points="637.4,230.0 597.6,253.0 597.6,299.0 637.4,322.0 677.2,299.0 677.2,253.0" fill="none" stroke="#2E4156" stroke-width="1.1" opacity="0.5"/>
<polygon points="717.1,230.0 677.2,253.0 677.2,299.0 717.1,322.0 756.9,299.0 756.9,253.0" fill="none" stroke="#2E4156" stroke-width="1.1" opacity="0.5"/>
<polygon points="796.7,230.0 756.9,253.0 756.9,299.0 796.7,322.0 836.6,299.0 836.6,253.0" fill="none" stroke="#2E4156" stroke-width="1.1" opacity="0.5"/>
<polygon points="876.4,230.0 836.6,253.0 836.6,299.0 876.4,322.0 916.3,299.0 916.3,253.0" fill="none" stroke="#2E4156" stroke-width="1.1" opacity="0.5"/>
<polygon points="956.1,230.0 916.3,253.0 916.3,299.0 956.1,322.0 995.9,299.0 995.9,253.0" fill="none" stroke="#2E4156" stroke-width="1.1" opacity="0.5"/>
<polygon points="1035.8,230.0 995.9,253.0 995.9,299.0 1035.8,322.0 1075.6,299.0 1075.6,253.0" fill="none" stroke="#2E4156" stroke-width="1.1" opacity="0.5"/>
<polygon points="1115.4,231.0 1076.5,253.5 1076.5,298.5 1115.4,321.0 1154.4,298.5 1154.4,253.5" fill="#56B4E9" opacity="0.05" stroke="none"/>
<polygon points="1115.4,230.0 1075.6,253.0 1075.6,299.0 1115.4,322.0 1155.3,299.0 1155.3,253.0" fill="none" stroke="#2E4156" stroke-width="1.1" opacity="0.5"/>
<polygon points="1195.1,230.0 1155.3,253.0 1155.3,299.0 1195.1,322.0 1235.0,299.0 1235.0,253.0" fill="none" stroke="#2E4156" stroke-width="1.1" opacity="0.5"/>
<polygon points="1274.8,230.0 1235.0,253.0 1235.0,299.0 1274.8,322.0 1314.6,299.0 1314.6,253.0" fill="none" stroke="#2E4156" stroke-width="1.1" opacity="0.5"/>
<polygon points="1354.5,230.0 1314.6,253.0 1314.6,299.0 1354.5,322.0 1394.3,299.0 1394.3,253.0" fill="none" stroke="#2E4156" stroke-width="1.1" opacity="0.5"/>
<polygon points="1434.1,230.0 1394.3,253.0 1394.3,299.0 1434.1,322.0 1474.0,299.0 1474.0,253.0" fill="none" stroke="#2E4156" stroke-width="1.1" opacity="0.5"/>
<polygon points="1513.8,230.0 1474.0,253.0 1474.0,299.0 1513.8,322.0 1553.6,299.0 1553.6,253.0" fill="none" stroke="#2E4156" stroke-width="1.1" opacity="0.5"/>
<polygon points="1593.5,230.0 1553.6,253.0 1553.6,299.0 1593.5,322.0 1633.3,299.0 1633.3,253.0" fill="none" stroke="#2E4156" stroke-width="1.1" opacity="0.5"/>
<polygon points="1673.2,230.0 1633.3,253.0 1633.3,299.0 1673.2,322.0 1713.0,299.0 1713.0,253.0" fill="none" stroke="#2E4156" stroke-width="1.1" opacity="0.5"/>
<polygon points="1752.8,230.0 1713.0,253.0 1713.0,299.0 1752.8,322.0 1792.7,299.0 1792.7,253.0" fill="none" stroke="#2E4156" stroke-width="1.1" opacity="0.5"/>
<polygon points="1832.5,230.0 1792.7,253.0 1792.7,299.0 1832.5,322.0 1872.3,299.0 1872.3,253.0" fill="none" stroke="#2E4156" stroke-width="1.1" opacity="0.5"/>
<polygon points="1912.2,230.0 1872.3,253.0 1872.3,299.0 1912.2,322.0 1952.0,299.0 1952.0,253.0" fill="none" stroke="#2E4156" stroke-width="1.1" opacity="0.5"/>
<polygon points="1991.9,230.0 1952.0,253.0 1952.0,299.0 1991.9,322.0 2031.7,299.0 2031.7,253.0" fill="none" stroke="#2E4156" stroke-width="1.1" opacity="0.5"/>
<polygon points="2071.5,230.0 2031.7,253.0 2031.7,299.0 2071.5,322.0 2111.4,299.0 2111.4,253.0" fill="none" stroke="#2E4156" stroke-width="1.1" opacity="0.5"/>
<polygon points="-39.8,299.0 -79.7,322.0 -79.7,368.0 -39.8,391.0 -0.0,368.0 0.0,322.0" fill="none" stroke="#2E4156" stroke-width="1.1" opacity="0.5"/>
<polygon points="39.8,300.0 0.9,322.5 0.9,367.5 39.8,390.0 78.8,367.5 78.8,322.5" fill="none" stroke="#E69F00" stroke-width="1.6" opacity="0.24"/>
<polygon points="39.8,299.0 -0.0,322.0 0.0,368.0 39.8,391.0 79.7,368.0 79.7,322.0" fill="none" stroke="#2E4156" stroke-width="1.1" opacity="0.5"/>
<polygon points="119.5,299.0 79.7,322.0 79.7,368.0 119.5,391.0 159.3,368.0 159.3,322.0" fill="none" stroke="#2E4156" stroke-width="1.1" opacity="0.5"/>
<polygon points="199.2,299.0 159.3,322.0 159.3,368.0 199.2,391.0 239.0,368.0 239.0,322.0" fill="none" stroke="#2E4156" stroke-width="1.1" opacity="0.5"/>
<polygon points="278.9,299.0 239.0,322.0 239.0,368.0 278.9,391.0 318.7,368.0 318.7,322.0" fill="none" stroke="#2E4156" stroke-width="1.1" opacity="0.5"/>
<polygon points="358.5,299.0 318.7,322.0 318.7,368.0 358.5,391.0 398.4,368.0 398.4,322.0" fill="none" stroke="#2E4156" stroke-width="1.1" opacity="0.5"/>
<polygon points="438.2,299.0 398.4,322.0 398.4,368.0 438.2,391.0 478.0,368.0 478.0,322.0" fill="none" stroke="#2E4156" stroke-width="1.1" opacity="0.5"/>
<polygon points="517.9,299.0 478.0,322.0 478.0,368.0 517.9,391.0 557.7,368.0 557.7,322.0" fill="none" stroke="#2E4156" stroke-width="1.1" opacity="0.5"/>
<polygon points="597.6,300.0 558.6,322.5 558.6,367.5 597.6,390.0 636.5,367.5 636.5,322.5" fill="none" stroke="#56B4E9" stroke-width="1.4" opacity="0.19"/>
<polygon points="597.6,299.0 557.7,322.0 557.7,368.0 597.6,391.0 637.4,368.0 637.4,322.0" fill="none" stroke="#2E4156" stroke-width="1.1" opacity="0.5"/>
<polygon points="677.2,299.0 637.4,322.0 637.4,368.0 677.2,391.0 717.1,368.0 717.1,322.0" fill="none" stroke="#2E4156" stroke-width="1.1" opacity="0.5"/>
<polygon points="756.9,299.0 717.1,322.0 717.1,368.0 756.9,391.0 796.7,368.0 796.7,322.0" fill="none" stroke="#2E4156" stroke-width="1.1" opacity="0.5"/>
<polygon points="836.6,299.0 796.7,322.0 796.7,368.0 836.6,391.0 876.4,368.0 876.4,322.0" fill="none" stroke="#2E4156" stroke-width="1.1" opacity="0.5"/>
<polygon points="916.3,299.0 876.4,322.0 876.4,368.0 916.3,391.0 956.1,368.0 956.1,322.0" fill="none" stroke="#2E4156" stroke-width="1.1" opacity="0.5"/>
<polygon points="995.9,299.0 956.1,322.0 956.1,368.0 995.9,391.0 1035.8,368.0 1035.8,322.0" fill="none" stroke="#2E4156" stroke-width="1.1" opacity="0.5"/>
<polygon points="1075.6,299.0 1035.8,322.0 1035.8,368.0 1075.6,391.0 1115.4,368.0 1115.4,322.0" fill="none" stroke="#2E4156" stroke-width="1.1" opacity="0.5"/>
<polygon points="1155.3,299.0 1115.4,322.0 1115.4,368.0 1155.3,391.0 1195.1,368.0 1195.1,322.0" fill="none" stroke="#2E4156" stroke-width="1.1" opacity="0.5"/>
<polygon points="1235.0,299.0 1195.1,322.0 1195.1,368.0 1235.0,391.0 1274.8,368.0 1274.8,322.0" fill="none" stroke="#2E4156" stroke-width="1.1" opacity="0.5"/>
<polygon points="1314.6,299.0 1274.8,322.0 1274.8,368.0 1314.6,391.0 1354.5,368.0 1354.5,322.0" fill="none" stroke="#2E4156" stroke-width="1.1" opacity="0.5"/>
<polygon points="1394.3,299.0 1354.5,322.0 1354.5,368.0 1394.3,391.0 1434.1,368.0 1434.1,322.0" fill="none" stroke="#2E4156" stroke-width="1.1" opacity="0.5"/>
<polygon points="1474.0,299.0 1434.1,322.0 1434.1,368.0 1474.0,391.0 1513.8,368.0 1513.8,322.0" fill="none" stroke="#2E4156" stroke-width="1.1" opacity="0.5"/>
<polygon points="1553.6,299.0 1513.8,322.0 1513.8,368.0 1553.6,391.0 1593.5,368.0 1593.5,322.0" fill="none" stroke="#2E4156" stroke-width="1.1" opacity="0.5"/>
<polygon points="1633.3,299.0 1593.5,322.0 1593.5,368.0 1633.3,391.0 1673.2,368.0 1673.2,322.0" fill="none" stroke="#2E4156" stroke-width="1.1" opacity="0.5"/>
<polygon points="1713.0,299.0 1673.2,322.0 1673.2,368.0 1713.0,391.0 1752.8,368.0 1752.8,322.0" fill="none" stroke="#2E4156" stroke-width="1.1" opacity="0.5"/>
<polygon points="1792.7,299.0 1752.8,322.0 1752.8,368.0 1792.7,391.0 1832.5,368.0 1832.5,322.0" fill="none" stroke="#2E4156" stroke-width="1.1" opacity="0.5"/>
<polygon points="1872.3,299.0 1832.5,322.0 1832.5,368.0 1872.3,391.0 1912.2,368.0 1912.2,322.0" fill="none" stroke="#2E4156" stroke-width="1.1" opacity="0.5"/>
<polygon points="1952.0,299.0 1912.2,322.0 1912.2,368.0 1952.0,391.0 1991.9,368.0 1991.9,322.0" fill="none" stroke="#2E4156" stroke-width="1.1" opacity="0.5"/>
<polygon points="2031.7,299.0 1991.9,322.0 1991.9,368.0 2031.7,391.0 2071.5,368.0 2071.5,322.0" fill="none" stroke="#2E4156" stroke-width="1.1" opacity="0.5"/>
<polygon points="2111.4,299.0 2071.5,322.0 2071.5,368.0 2111.4,391.0 2151.2,368.0 2151.2,322.0" fill="none" stroke="#2E4156" stroke-width="1.1" opacity="0.5"/>
<polygon points="-79.7,368.0 -119.5,391.0 -119.5,437.0 -79.7,460.0 -39.8,437.0 -39.8,391.0" fill="none" stroke="#2E4156" stroke-width="1.1" opacity="0.5"/>
<polygon points="0.0,368.0 -39.8,391.0 -39.8,437.0 -0.0,460.0 39.8,437.0 39.8,391.0" fill="none" stroke="#2E4156" stroke-width="1.1" opacity="0.5"/>
<polygon points="79.7,368.0 39.8,391.0 39.8,437.0 79.7,460.0 119.5,437.0 119.5,391.0" fill="none" stroke="#2E4156" stroke-width="1.1" opacity="0.5"/>
<polygon points="159.3,369.0 120.4,391.5 120.4,436.5 159.3,459.0 198.3,436.5 198.3,391.5" fill="#56B4E9" opacity="0.05" stroke="none"/>
<polygon points="159.3,368.0 119.5,391.0 119.5,437.0 159.3,460.0 199.2,437.0 199.2,391.0" fill="none" stroke="#2E4156" stroke-width="1.1" opacity="0.5"/>
<polygon points="239.0,369.0 200.1,391.5 200.1,436.5 239.0,459.0 278.0,436.5 278.0,391.5" fill="#56B4E9" opacity="0.05" stroke="none"/>
<polygon points="239.0,368.0 199.2,391.0 199.2,437.0 239.0,460.0 278.9,437.0 278.9,391.0" fill="none" stroke="#2E4156" stroke-width="1.1" opacity="0.5"/>
<polygon points="318.7,368.0 278.9,391.0 278.9,437.0 318.7,460.0 358.5,437.0 358.5,391.0" fill="none" stroke="#2E4156" stroke-width="1.1" opacity="0.5"/>
<polygon points="398.4,368.0 358.5,391.0 358.5,437.0 398.4,460.0 438.2,437.0 438.2,391.0" fill="none" stroke="#2E4156" stroke-width="1.1" opacity="0.5"/>
<polygon points="478.0,368.0 438.2,391.0 438.2,437.0 478.0,460.0 517.9,437.0 517.9,391.0" fill="none" stroke="#2E4156" stroke-width="1.1" opacity="0.5"/>
<polygon points="557.7,368.0 517.9,391.0 517.9,437.0 557.7,460.0 597.6,437.0 597.6,391.0" fill="none" stroke="#2E4156" stroke-width="1.1" opacity="0.5"/>
<polygon points="637.4,368.0 597.6,391.0 597.6,437.0 637.4,460.0 677.2,437.0 677.2,391.0" fill="none" stroke="#2E4156" stroke-width="1.1" opacity="0.5"/>
<polygon points="717.1,368.0 677.2,391.0 677.2,437.0 717.1,460.0 756.9,437.0 756.9,391.0" fill="none" stroke="#2E4156" stroke-width="1.1" opacity="0.5"/>
<polygon points="796.7,369.0 757.8,391.5 757.8,436.5 796.7,459.0 835.7,436.5 835.7,391.5" fill="#56B4E9" opacity="0.05" stroke="none"/>
<polygon points="796.7,368.0 756.9,391.0 756.9,437.0 796.7,460.0 836.6,437.0 836.6,391.0" fill="none" stroke="#2E4156" stroke-width="1.1" opacity="0.5"/>
<polygon points="876.4,368.0 836.6,391.0 836.6,437.0 876.4,460.0 916.3,437.0 916.3,391.0" fill="none" stroke="#2E4156" stroke-width="1.1" opacity="0.5"/>
<polygon points="956.1,368.0 916.3,391.0 916.3,437.0 956.1,460.0 995.9,437.0 995.9,391.0" fill="none" stroke="#2E4156" stroke-width="1.1" opacity="0.5"/>
<polygon points="1035.8,368.0 995.9,391.0 995.9,437.0 1035.8,460.0 1075.6,437.0 1075.6,391.0" fill="none" stroke="#2E4156" stroke-width="1.1" opacity="0.5"/>
<polygon points="1115.4,368.0 1075.6,391.0 1075.6,437.0 1115.4,460.0 1155.3,437.0 1155.3,391.0" fill="none" stroke="#2E4156" stroke-width="1.1" opacity="0.5"/>
<polygon points="1195.1,368.0 1155.3,391.0 1155.3,437.0 1195.1,460.0 1235.0,437.0 1235.0,391.0" fill="none" stroke="#2E4156" stroke-width="1.1" opacity="0.5"/>
<polygon points="1274.8,368.0 1235.0,391.0 1235.0,437.0 1274.8,460.0 1314.6,437.0 1314.6,391.0" fill="none" stroke="#2E4156" stroke-width="1.1" opacity="0.5"/>
<polygon points="1354.5,368.0 1314.6,391.0 1314.6,437.0 1354.5,460.0 1394.3,437.0 1394.3,391.0" fill="none" stroke="#2E4156" stroke-width="1.1" opacity="0.5"/>
<polygon points="1434.1,368.0 1394.3,391.0 1394.3,437.0 1434.1,460.0 1474.0,437.0 1474.0,391.0" fill="none" stroke="#2E4156" stroke-width="1.1" opacity="0.5"/>
<polygon points="1513.8,368.0 1474.0,391.0 1474.0,437.0 1513.8,460.0 1553.6,437.0 1553.6,391.0" fill="none" stroke="#2E4156" stroke-width="1.1" opacity="0.5"/>
<polygon points="1593.5,368.0 1553.6,391.0 1553.6,437.0 1593.5,460.0 1633.3,437.0 1633.3,391.0" fill="none" stroke="#2E4156" stroke-width="1.1" opacity="0.5"/>
<polygon points="1673.2,368.0 1633.3,391.0 1633.3,437.0 1673.2,460.0 1713.0,437.0 1713.0,391.0" fill="none" stroke="#2E4156" stroke-width="1.1" opacity="0.5"/>
<polygon points="1752.8,368.0 1713.0,391.0 1713.0,437.0 1752.8,460.0 1792.7,437.0 1792.7,391.0" fill="none" stroke="#2E4156" stroke-width="1.1" opacity="0.5"/>
<polygon points="1832.5,368.0 1792.7,391.0 1792.7,437.0 1832.5,460.0 1872.3,437.0 1872.3,391.0" fill="none" stroke="#2E4156" stroke-width="1.1" opacity="0.5"/>
<polygon points="1912.2,368.0 1872.3,391.0 1872.3,437.0 1912.2,460.0 1952.0,437.0 1952.0,391.0" fill="none" stroke="#2E4156" stroke-width="1.1" opacity="0.5"/>
<polygon points="1991.9,368.0 1952.0,391.0 1952.0,437.0 1991.9,460.0 2031.7,437.0 2031.7,391.0" fill="none" stroke="#2E4156" stroke-width="1.1" opacity="0.5"/>
<polygon points="2071.5,368.0 2031.7,391.0 2031.7,437.0 2071.5,460.0 2111.4,437.0 2111.4,391.0" fill="none" stroke="#2E4156" stroke-width="1.1" opacity="0.5"/>
<polygon points="-39.8,438.0 -78.8,460.5 -78.8,505.5 -39.8,528.0 -0.9,505.5 -0.9,460.5" fill="#56B4E9" opacity="0.05" stroke="none"/>
<polygon points="-39.8,437.0 -79.7,460.0 -79.7,506.0 -39.8,529.0 -0.0,506.0 0.0,460.0" fill="none" stroke="#2E4156" stroke-width="1.1" opacity="0.5"/>
<polygon points="39.8,437.0 -0.0,460.0 0.0,506.0 39.8,529.0 79.7,506.0 79.7,460.0" fill="none" stroke="#2E4156" stroke-width="1.1" opacity="0.5"/>
<polygon points="119.5,437.0 79.7,460.0 79.7,506.0 119.5,529.0 159.3,506.0 159.3,460.0" fill="none" stroke="#2E4156" stroke-width="1.1" opacity="0.5"/>
<polygon points="199.2,437.0 159.3,460.0 159.3,506.0 199.2,529.0 239.0,506.0 239.0,460.0" fill="none" stroke="#2E4156" stroke-width="1.1" opacity="0.5"/>
<polygon points="278.9,437.0 239.0,460.0 239.0,506.0 278.9,529.0 318.7,506.0 318.7,460.0" fill="none" stroke="#2E4156" stroke-width="1.1" opacity="0.5"/>
<polygon points="358.5,437.0 318.7,460.0 318.7,506.0 358.5,529.0 398.4,506.0 398.4,460.0" fill="none" stroke="#2E4156" stroke-width="1.1" opacity="0.5"/>
<polygon points="438.2,437.0 398.4,460.0 398.4,506.0 438.2,529.0 478.0,506.0 478.0,460.0" fill="none" stroke="#2E4156" stroke-width="1.1" opacity="0.5"/>
<polygon points="517.9,437.0 478.0,460.0 478.0,506.0 517.9,529.0 557.7,506.0 557.7,460.0" fill="none" stroke="#2E4156" stroke-width="1.1" opacity="0.5"/>
<polygon points="597.6,437.0 557.7,460.0 557.7,506.0 597.6,529.0 637.4,506.0 637.4,460.0" fill="none" stroke="#2E4156" stroke-width="1.1" opacity="0.5"/>
<polygon points="677.2,437.0 637.4,460.0 637.4,506.0 677.2,529.0 717.1,506.0 717.1,460.0" fill="none" stroke="#2E4156" stroke-width="1.1" opacity="0.5"/>
<polygon points="756.9,437.0 717.1,460.0 717.1,506.0 756.9,529.0 796.7,506.0 796.7,460.0" fill="none" stroke="#2E4156" stroke-width="1.1" opacity="0.5"/>
<polygon points="836.6,438.0 797.6,460.5 797.6,505.5 836.6,528.0 875.6,505.5 875.6,460.5" fill="none" stroke="#56B4E9" stroke-width="1.4" opacity="0.13"/>
<polygon points="836.6,437.0 796.7,460.0 796.7,506.0 836.6,529.0 876.4,506.0 876.4,460.0" fill="none" stroke="#2E4156" stroke-width="1.1" opacity="0.5"/>
<polygon points="916.3,437.0 876.4,460.0 876.4,506.0 916.3,529.0 956.1,506.0 956.1,460.0" fill="none" stroke="#2E4156" stroke-width="1.1" opacity="0.5"/>
<polygon points="995.9,437.0 956.1,460.0 956.1,506.0 995.9,529.0 1035.8,506.0 1035.8,460.0" fill="none" stroke="#2E4156" stroke-width="1.1" opacity="0.5"/>
<polygon points="1075.6,437.0 1035.8,460.0 1035.8,506.0 1075.6,529.0 1115.4,506.0 1115.4,460.0" fill="none" stroke="#2E4156" stroke-width="1.1" opacity="0.5"/>
<polygon points="1155.3,437.0 1115.4,460.0 1115.4,506.0 1155.3,529.0 1195.1,506.0 1195.1,460.0" fill="none" stroke="#2E4156" stroke-width="1.1" opacity="0.5"/>
<polygon points="1235.0,437.0 1195.1,460.0 1195.1,506.0 1235.0,529.0 1274.8,506.0 1274.8,460.0" fill="none" stroke="#2E4156" stroke-width="1.1" opacity="0.5"/>
<polygon points="1314.6,437.0 1274.8,460.0 1274.8,506.0 1314.6,529.0 1354.5,506.0 1354.5,460.0" fill="none" stroke="#2E4156" stroke-width="1.1" opacity="0.5"/>
<polygon points="1394.3,437.0 1354.5,460.0 1354.5,506.0 1394.3,529.0 1434.1,506.0 1434.1,460.0" fill="none" stroke="#2E4156" stroke-width="1.1" opacity="0.5"/>
<polygon points="1474.0,437.0 1434.1,460.0 1434.1,506.0 1474.0,529.0 1513.8,506.0 1513.8,460.0" fill="none" stroke="#2E4156" stroke-width="1.1" opacity="0.5"/>
<polygon points="1553.6,437.0 1513.8,460.0 1513.8,506.0 1553.6,529.0 1593.5,506.0 1593.5,460.0" fill="none" stroke="#2E4156" stroke-width="1.1" opacity="0.5"/>
<polygon points="1633.3,437.0 1593.5,460.0 1593.5,506.0 1633.3,529.0 1673.2,506.0 1673.2,460.0" fill="none" stroke="#2E4156" stroke-width="1.1" opacity="0.5"/>
<polygon points="1713.0,437.0 1673.2,460.0 1673.2,506.0 1713.0,529.0 1752.8,506.0 1752.8,460.0" fill="none" stroke="#2E4156" stroke-width="1.1" opacity="0.5"/>
<polygon points="1792.7,437.0 1752.8,460.0 1752.8,506.0 1792.7,529.0 1832.5,506.0 1832.5,460.0" fill="none" stroke="#2E4156" stroke-width="1.1" opacity="0.5"/>
<polygon points="1872.3,437.0 1832.5,460.0 1832.5,506.0 1872.3,529.0 1912.2,506.0 1912.2,460.0" fill="none" stroke="#2E4156" stroke-width="1.1" opacity="0.5"/>
<polygon points="1952.0,437.0 1912.2,460.0 1912.2,506.0 1952.0,529.0 1991.9,506.0 1991.9,460.0" fill="none" stroke="#2E4156" stroke-width="1.1" opacity="0.5"/>
<polygon points="2031.7,437.0 1991.9,460.0 1991.9,506.0 2031.7,529.0 2071.5,506.0 2071.5,460.0" fill="none" stroke="#2E4156" stroke-width="1.1" opacity="0.5"/>
<polygon points="2111.4,437.0 2071.5,460.0 2071.5,506.0 2111.4,529.0 2151.2,506.0 2151.2,460.0" fill="none" stroke="#2E4156" stroke-width="1.1" opacity="0.5"/>
<polygon points="-79.7,506.0 -119.5,529.0 -119.5,575.0 -79.7,598.0 -39.8,575.0 -39.8,529.0" fill="none" stroke="#2E4156" stroke-width="1.1" opacity="0.5"/>
<polygon points="0.0,506.0 -39.8,529.0 -39.8,575.0 -0.0,598.0 39.8,575.0 39.8,529.0" fill="none" stroke="#2E4156" stroke-width="1.1" opacity="0.5"/>
<polygon points="79.7,506.0 39.8,529.0 39.8,575.0 79.7,598.0 119.5,575.0 119.5,529.0" fill="none" stroke="#2E4156" stroke-width="1.1" opacity="0.5"/>
<polygon points="159.3,506.0 119.5,529.0 119.5,575.0 159.3,598.0 199.2,575.0 199.2,529.0" fill="none" stroke="#2E4156" stroke-width="1.1" opacity="0.5"/>
<polygon points="239.0,506.0 199.2,529.0 199.2,575.0 239.0,598.0 278.9,575.0 278.9,529.0" fill="none" stroke="#2E4156" stroke-width="1.1" opacity="0.5"/>
<polygon points="318.7,506.0 278.9,529.0 278.9,575.0 318.7,598.0 358.5,575.0 358.5,529.0" fill="none" stroke="#2E4156" stroke-width="1.1" opacity="0.5"/>
<polygon points="398.4,506.0 358.5,529.0 358.5,575.0 398.4,598.0 438.2,575.0 438.2,529.0" fill="none" stroke="#2E4156" stroke-width="1.1" opacity="0.5"/>
<polygon points="478.0,506.0 438.2,529.0 438.2,575.0 478.0,598.0 517.9,575.0 517.9,529.0" fill="none" stroke="#2E4156" stroke-width="1.1" opacity="0.5"/>
<polygon points="557.7,506.0 517.9,529.0 517.9,575.0 557.7,598.0 597.6,575.0 597.6,529.0" fill="none" stroke="#2E4156" stroke-width="1.1" opacity="0.5"/>
<polygon points="637.4,506.0 597.6,529.0 597.6,575.0 637.4,598.0 677.2,575.0 677.2,529.0" fill="none" stroke="#2E4156" stroke-width="1.1" opacity="0.5"/>
<polygon points="717.1,506.0 677.2,529.0 677.2,575.0 717.1,598.0 756.9,575.0 756.9,529.0" fill="none" stroke="#2E4156" stroke-width="1.1" opacity="0.5"/>
<polygon points="796.7,506.0 756.9,529.0 756.9,575.0 796.7,598.0 836.6,575.0 836.6,529.0" fill="none" stroke="#2E4156" stroke-width="1.1" opacity="0.5"/>
<polygon points="876.4,506.0 836.6,529.0 836.6,575.0 876.4,598.0 916.3,575.0 916.3,529.0" fill="none" stroke="#2E4156" stroke-width="1.1" opacity="0.5"/>
<polygon points="956.1,507.0 917.1,529.5 917.1,574.5 956.1,597.0 995.1,574.5 995.1,529.5" fill="none" stroke="#E69F00" stroke-width="1.6" opacity="0.33"/>
<polygon points="956.1,506.0 916.3,529.0 916.3,575.0 956.1,598.0 995.9,575.0 995.9,529.0" fill="none" stroke="#2E4156" stroke-width="1.1" opacity="0.5"/>
<polygon points="1035.8,506.0 995.9,529.0 995.9,575.0 1035.8,598.0 1075.6,575.0 1075.6,529.0" fill="none" stroke="#2E4156" stroke-width="1.1" opacity="0.5"/>
<polygon points="1115.4,506.0 1075.6,529.0 1075.6,575.0 1115.4,598.0 1155.3,575.0 1155.3,529.0" fill="none" stroke="#2E4156" stroke-width="1.1" opacity="0.5"/>
<polygon points="1195.1,506.0 1155.3,529.0 1155.3,575.0 1195.1,598.0 1235.0,575.0 1235.0,529.0" fill="none" stroke="#2E4156" stroke-width="1.1" opacity="0.5"/>
<polygon points="1274.8,506.0 1235.0,529.0 1235.0,575.0 1274.8,598.0 1314.6,575.0 1314.6,529.0" fill="none" stroke="#2E4156" stroke-width="1.1" opacity="0.5"/>
<polygon points="1354.5,506.0 1314.6,529.0 1314.6,575.0 1354.5,598.0 1394.3,575.0 1394.3,529.0" fill="none" stroke="#2E4156" stroke-width="1.1" opacity="0.5"/>
<polygon points="1434.1,506.0 1394.3,529.0 1394.3,575.0 1434.1,598.0 1474.0,575.0 1474.0,529.0" fill="none" stroke="#2E4156" stroke-width="1.1" opacity="0.5"/>
<polygon points="1513.8,507.0 1474.8,529.5 1474.8,574.5 1513.8,597.0 1552.8,574.5 1552.8,529.5" fill="#56B4E9" opacity="0.05" stroke="none"/>
<polygon points="1513.8,506.0 1474.0,529.0 1474.0,575.0 1513.8,598.0 1553.6,575.0 1553.6,529.0" fill="none" stroke="#2E4156" stroke-width="1.1" opacity="0.5"/>
<polygon points="1593.5,506.0 1553.6,529.0 1553.6,575.0 1593.5,598.0 1633.3,575.0 1633.3,529.0" fill="none" stroke="#2E4156" stroke-width="1.1" opacity="0.5"/>
<polygon points="1673.2,506.0 1633.3,529.0 1633.3,575.0 1673.2,598.0 1713.0,575.0 1713.0,529.0" fill="none" stroke="#2E4156" stroke-width="1.1" opacity="0.5"/>
<polygon points="1752.8,506.0 1713.0,529.0 1713.0,575.0 1752.8,598.0 1792.7,575.0 1792.7,529.0" fill="none" stroke="#2E4156" stroke-width="1.1" opacity="0.5"/>
<polygon points="1832.5,506.0 1792.7,529.0 1792.7,575.0 1832.5,598.0 1872.3,575.0 1872.3,529.0" fill="none" stroke="#2E4156" stroke-width="1.1" opacity="0.5"/>
<polygon points="1912.2,506.0 1872.3,529.0 1872.3,575.0 1912.2,598.0 1952.0,575.0 1952.0,529.0" fill="none" stroke="#2E4156" stroke-width="1.1" opacity="0.5"/>
<polygon points="1991.9,506.0 1952.0,529.0 1952.0,575.0 1991.9,598.0 2031.7,575.0 2031.7,529.0" fill="none" stroke="#2E4156" stroke-width="1.1" opacity="0.5"/>
<polygon points="2071.5,506.0 2031.7,529.0 2031.7,575.0 2071.5,598.0 2111.4,575.0 2111.4,529.0" fill="none" stroke="#2E4156" stroke-width="1.1" opacity="0.5"/>
<polygon points="-39.8,575.0 -79.7,598.0 -79.7,644.0 -39.8,667.0 -0.0,644.0 0.0,598.0" fill="none" stroke="#2E4156" stroke-width="1.1" opacity="0.5"/>
<polygon points="39.8,575.0 -0.0,598.0 0.0,644.0 39.8,667.0 79.7,644.0 79.7,598.0" fill="none" stroke="#2E4156" stroke-width="1.1" opacity="0.5"/>
<polygon points="119.5,575.0 79.7,598.0 79.7,644.0 119.5,667.0 159.3,644.0 159.3,598.0" fill="none" stroke="#2E4156" stroke-width="1.1" opacity="0.5"/>
<polygon points="199.2,576.0 160.2,598.5 160.2,643.5 199.2,666.0 238.2,643.5 238.2,598.5" fill="#56B4E9" opacity="0.05" stroke="none"/>
<polygon points="199.2,575.0 159.3,598.0 159.3,644.0 199.2,667.0 239.0,644.0 239.0,598.0" fill="none" stroke="#2E4156" stroke-width="1.1" opacity="0.5"/>
<polygon points="278.9,575.0 239.0,598.0 239.0,644.0 278.9,667.0 318.7,644.0 318.7,598.0" fill="none" stroke="#2E4156" stroke-width="1.1" opacity="0.5"/>
<polygon points="358.5,575.0 318.7,598.0 318.7,644.0 358.5,667.0 398.4,644.0 398.4,598.0" fill="none" stroke="#2E4156" stroke-width="1.1" opacity="0.5"/>
<polygon points="438.2,575.0 398.4,598.0 398.4,644.0 438.2,667.0 478.0,644.0 478.0,598.0" fill="none" stroke="#2E4156" stroke-width="1.1" opacity="0.5"/>
<polygon points="517.9,575.0 478.0,598.0 478.0,644.0 517.9,667.0 557.7,644.0 557.7,598.0" fill="none" stroke="#2E4156" stroke-width="1.1" opacity="0.5"/>
<polygon points="597.6,575.0 557.7,598.0 557.7,644.0 597.6,667.0 637.4,644.0 637.4,598.0" fill="none" stroke="#2E4156" stroke-width="1.1" opacity="0.5"/>
<polygon points="677.2,575.0 637.4,598.0 637.4,644.0 677.2,667.0 717.1,644.0 717.1,598.0" fill="none" stroke="#2E4156" stroke-width="1.1" opacity="0.5"/>
<polygon points="756.9,575.0 717.1,598.0 717.1,644.0 756.9,667.0 796.7,644.0 796.7,598.0" fill="none" stroke="#2E4156" stroke-width="1.1" opacity="0.5"/>
<polygon points="836.6,575.0 796.7,598.0 796.7,644.0 836.6,667.0 876.4,644.0 876.4,598.0" fill="none" stroke="#2E4156" stroke-width="1.1" opacity="0.5"/>
<polygon points="916.3,575.0 876.4,598.0 876.4,644.0 916.3,667.0 956.1,644.0 956.1,598.0" fill="none" stroke="#2E4156" stroke-width="1.1" opacity="0.5"/>
<polygon points="995.9,575.0 956.1,598.0 956.1,644.0 995.9,667.0 1035.8,644.0 1035.8,598.0" fill="none" stroke="#2E4156" stroke-width="1.1" opacity="0.5"/>
<polygon points="1075.6,575.0 1035.8,598.0 1035.8,644.0 1075.6,667.0 1115.4,644.0 1115.4,598.0" fill="none" stroke="#2E4156" stroke-width="1.1" opacity="0.5"/>
<polygon points="1155.3,575.0 1115.4,598.0 1115.4,644.0 1155.3,667.0 1195.1,644.0 1195.1,598.0" fill="none" stroke="#2E4156" stroke-width="1.1" opacity="0.5"/>
<polygon points="1235.0,575.0 1195.1,598.0 1195.1,644.0 1235.0,667.0 1274.8,644.0 1274.8,598.0" fill="none" stroke="#2E4156" stroke-width="1.1" opacity="0.5"/>
<polygon points="1314.6,575.0 1274.8,598.0 1274.8,644.0 1314.6,667.0 1354.5,644.0 1354.5,598.0" fill="none" stroke="#2E4156" stroke-width="1.1" opacity="0.5"/>
<polygon points="1394.3,575.0 1354.5,598.0 1354.5,644.0 1394.3,667.0 1434.1,644.0 1434.1,598.0" fill="none" stroke="#2E4156" stroke-width="1.1" opacity="0.5"/>
<polygon points="1474.0,575.0 1434.1,598.0 1434.1,644.0 1474.0,667.0 1513.8,644.0 1513.8,598.0" fill="none" stroke="#2E4156" stroke-width="1.1" opacity="0.5"/>
<polygon points="1553.6,575.0 1513.8,598.0 1513.8,644.0 1553.6,667.0 1593.5,644.0 1593.5,598.0" fill="none" stroke="#2E4156" stroke-width="1.1" opacity="0.5"/>
<polygon points="1633.3,575.0 1593.5,598.0 1593.5,644.0 1633.3,667.0 1673.2,644.0 1673.2,598.0" fill="none" stroke="#2E4156" stroke-width="1.1" opacity="0.5"/>
<polygon points="1713.0,575.0 1673.2,598.0 1673.2,644.0 1713.0,667.0 1752.8,644.0 1752.8,598.0" fill="none" stroke="#2E4156" stroke-width="1.1" opacity="0.5"/>
<polygon points="1792.7,575.0 1752.8,598.0 1752.8,644.0 1792.7,667.0 1832.5,644.0 1832.5,598.0" fill="none" stroke="#2E4156" stroke-width="1.1" opacity="0.5"/>
<polygon points="1872.3,575.0 1832.5,598.0 1832.5,644.0 1872.3,667.0 1912.2,644.0 1912.2,598.0" fill="none" stroke="#2E4156" stroke-width="1.1" opacity="0.5"/>
<polygon points="1952.0,575.0 1912.2,598.0 1912.2,644.0 1952.0,667.0 1991.9,644.0 1991.9,598.0" fill="none" stroke="#2E4156" stroke-width="1.1" opacity="0.5"/>
<polygon points="2031.7,575.0 1991.9,598.0 1991.9,644.0 2031.7,667.0 2071.5,644.0 2071.5,598.0" fill="none" stroke="#2E4156" stroke-width="1.1" opacity="0.5"/>
<polygon points="2111.4,575.0 2071.5,598.0 2071.5,644.0 2111.4,667.0 2151.2,644.0 2151.2,598.0" fill="none" stroke="#2E4156" stroke-width="1.1" opacity="0.5"/>
<polygon points="-79.7,644.0 -119.5,667.0 -119.5,713.0 -79.7,736.0 -39.8,713.0 -39.8,667.0" fill="none" stroke="#2E4156" stroke-width="1.1" opacity="0.5"/>
<polygon points="0.0,644.0 -39.8,667.0 -39.8,713.0 -0.0,736.0 39.8,713.0 39.8,667.0" fill="none" stroke="#2E4156" stroke-width="1.1" opacity="0.5"/>
<polygon points="79.7,644.0 39.8,667.0 39.8,713.0 79.7,736.0 119.5,713.0 119.5,667.0" fill="none" stroke="#2E4156" stroke-width="1.1" opacity="0.5"/>
<polygon points="159.3,644.0 119.5,667.0 119.5,713.0 159.3,736.0 199.2,713.0 199.2,667.0" fill="none" stroke="#2E4156" stroke-width="1.1" opacity="0.5"/>
<polygon points="239.0,644.0 199.2,667.0 199.2,713.0 239.0,736.0 278.9,713.0 278.9,667.0" fill="none" stroke="#2E4156" stroke-width="1.1" opacity="0.5"/>
<polygon points="318.7,644.0 278.9,667.0 278.9,713.0 318.7,736.0 358.5,713.0 358.5,667.0" fill="none" stroke="#2E4156" stroke-width="1.1" opacity="0.5"/>
<polygon points="398.4,644.0 358.5,667.0 358.5,713.0 398.4,736.0 438.2,713.0 438.2,667.0" fill="none" stroke="#2E4156" stroke-width="1.1" opacity="0.5"/>
<polygon points="478.0,644.0 438.2,667.0 438.2,713.0 478.0,736.0 517.9,713.0 517.9,667.0" fill="none" stroke="#2E4156" stroke-width="1.1" opacity="0.5"/>
<polygon points="557.7,644.0 517.9,667.0 517.9,713.0 557.7,736.0 597.6,713.0 597.6,667.0" fill="none" stroke="#2E4156" stroke-width="1.1" opacity="0.5"/>
<polygon points="637.4,644.0 597.6,667.0 597.6,713.0 637.4,736.0 677.2,713.0 677.2,667.0" fill="none" stroke="#2E4156" stroke-width="1.1" opacity="0.5"/>
<polygon points="717.1,644.0 677.2,667.0 677.2,713.0 717.1,736.0 756.9,713.0 756.9,667.0" fill="none" stroke="#2E4156" stroke-width="1.1" opacity="0.5"/>
<polygon points="796.7,644.0 756.9,667.0 756.9,713.0 796.7,736.0 836.6,713.0 836.6,667.0" fill="none" stroke="#2E4156" stroke-width="1.1" opacity="0.5"/>
<polygon points="876.4,644.0 836.6,667.0 836.6,713.0 876.4,736.0 916.3,713.0 916.3,667.0" fill="none" stroke="#2E4156" stroke-width="1.1" opacity="0.5"/>
<polygon points="956.1,644.0 916.3,667.0 916.3,713.0 956.1,736.0 995.9,713.0 995.9,667.0" fill="none" stroke="#2E4156" stroke-width="1.1" opacity="0.5"/>
<polygon points="1035.8,644.0 995.9,667.0 995.9,713.0 1035.8,736.0 1075.6,713.0 1075.6,667.0" fill="none" stroke="#2E4156" stroke-width="1.1" opacity="0.5"/>
<polygon points="1115.4,644.0 1075.6,667.0 1075.6,713.0 1115.4,736.0 1155.3,713.0 1155.3,667.0" fill="none" stroke="#2E4156" stroke-width="1.1" opacity="0.5"/>
<polygon points="1195.1,644.0 1155.3,667.0 1155.3,713.0 1195.1,736.0 1235.0,713.0 1235.0,667.0" fill="none" stroke="#2E4156" stroke-width="1.1" opacity="0.5"/>
<polygon points="1274.8,644.0 1235.0,667.0 1235.0,713.0 1274.8,736.0 1314.6,713.0 1314.6,667.0" fill="none" stroke="#2E4156" stroke-width="1.1" opacity="0.5"/>
<polygon points="1354.5,644.0 1314.6,667.0 1314.6,713.0 1354.5,736.0 1394.3,713.0 1394.3,667.0" fill="none" stroke="#2E4156" stroke-width="1.1" opacity="0.5"/>
<polygon points="1434.1,644.0 1394.3,667.0 1394.3,713.0 1434.1,736.0 1474.0,713.0 1474.0,667.0" fill="none" stroke="#2E4156" stroke-width="1.1" opacity="0.5"/>
<polygon points="1513.8,644.0 1474.0,667.0 1474.0,713.0 1513.8,736.0 1553.6,713.0 1553.6,667.0" fill="none" stroke="#2E4156" stroke-width="1.1" opacity="0.5"/>
<polygon points="1593.5,644.0 1553.6,667.0 1553.6,713.0 1593.5,736.0 1633.3,713.0 1633.3,667.0" fill="none" stroke="#2E4156" stroke-width="1.1" opacity="0.5"/>
<polygon points="1673.2,645.0 1634.2,667.5 1634.2,712.5 1673.2,735.0 1712.1,712.5 1712.1,667.5" fill="#56B4E9" opacity="0.05" stroke="none"/>
<polygon points="1673.2,644.0 1633.3,667.0 1633.3,713.0 1673.2,736.0 1713.0,713.0 1713.0,667.0" fill="none" stroke="#2E4156" stroke-width="1.1" opacity="0.5"/>
<polygon points="1752.8,644.0 1713.0,667.0 1713.0,713.0 1752.8,736.0 1792.7,713.0 1792.7,667.0" fill="none" stroke="#2E4156" stroke-width="1.1" opacity="0.5"/>
<polygon points="1832.5,644.0 1792.7,667.0 1792.7,713.0 1832.5,736.0 1872.3,713.0 1872.3,667.0" fill="none" stroke="#2E4156" stroke-width="1.1" opacity="0.5"/>
<polygon points="1912.2,644.0 1872.3,667.0 1872.3,713.0 1912.2,736.0 1952.0,713.0 1952.0,667.0" fill="none" stroke="#2E4156" stroke-width="1.1" opacity="0.5"/>
<polygon points="1991.9,644.0 1952.0,667.0 1952.0,713.0 1991.9,736.0 2031.7,713.0 2031.7,667.0" fill="none" stroke="#2E4156" stroke-width="1.1" opacity="0.5"/>
<polygon points="2071.5,644.0 2031.7,667.0 2031.7,713.0 2071.5,736.0 2111.4,713.0 2111.4,667.0" fill="none" stroke="#2E4156" stroke-width="1.1" opacity="0.5"/>
<polygon points="-39.8,713.0 -79.7,736.0 -79.7,782.0 -39.8,805.0 -0.0,782.0 0.0,736.0" fill="none" stroke="#2E4156" stroke-width="1.1" opacity="0.5"/>
<polygon points="39.8,714.0 0.9,736.5 0.9,781.5 39.8,804.0 78.8,781.5 78.8,736.5" fill="none" stroke="#56B4E9" stroke-width="1.4" opacity="0.13"/>
<polygon points="39.8,713.0 -0.0,736.0 0.0,782.0 39.8,805.0 79.7,782.0 79.7,736.0" fill="none" stroke="#2E4156" stroke-width="1.1" opacity="0.5"/>
<polygon points="119.5,713.0 79.7,736.0 79.7,782.0 119.5,805.0 159.3,782.0 159.3,736.0" fill="none" stroke="#2E4156" stroke-width="1.1" opacity="0.5"/>
<polygon points="199.2,713.0 159.3,736.0 159.3,782.0 199.2,805.0 239.0,782.0 239.0,736.0" fill="none" stroke="#2E4156" stroke-width="1.1" opacity="0.5"/>
<polygon points="278.9,713.0 239.0,736.0 239.0,782.0 278.9,805.0 318.7,782.0 318.7,736.0" fill="none" stroke="#2E4156" stroke-width="1.1" opacity="0.5"/>
<polygon points="358.5,714.0 319.6,736.5 319.6,781.5 358.5,804.0 397.5,781.5 397.5,736.5" fill="#56B4E9" opacity="0.05" stroke="none"/>
<polygon points="358.5,713.0 318.7,736.0 318.7,782.0 358.5,805.0 398.4,782.0 398.4,736.0" fill="none" stroke="#2E4156" stroke-width="1.1" opacity="0.5"/>
<polygon points="438.2,713.0 398.4,736.0 398.4,782.0 438.2,805.0 478.0,782.0 478.0,736.0" fill="none" stroke="#2E4156" stroke-width="1.1" opacity="0.5"/>
<polygon points="517.9,713.0 478.0,736.0 478.0,782.0 517.9,805.0 557.7,782.0 557.7,736.0" fill="none" stroke="#2E4156" stroke-width="1.1" opacity="0.5"/>
<polygon points="597.6,713.0 557.7,736.0 557.7,782.0 597.6,805.0 637.4,782.0 637.4,736.0" fill="none" stroke="#2E4156" stroke-width="1.1" opacity="0.5"/>
<polygon points="677.2,713.0 637.4,736.0 637.4,782.0 677.2,805.0 717.1,782.0 717.1,736.0" fill="none" stroke="#2E4156" stroke-width="1.1" opacity="0.5"/>
<polygon points="756.9,713.0 717.1,736.0 717.1,782.0 756.9,805.0 796.7,782.0 796.7,736.0" fill="none" stroke="#2E4156" stroke-width="1.1" opacity="0.5"/>
<polygon points="836.6,713.0 796.7,736.0 796.7,782.0 836.6,805.0 876.4,782.0 876.4,736.0" fill="none" stroke="#2E4156" stroke-width="1.1" opacity="0.5"/>
<polygon points="916.3,713.0 876.4,736.0 876.4,782.0 916.3,805.0 956.1,782.0 956.1,736.0" fill="none" stroke="#2E4156" stroke-width="1.1" opacity="0.5"/>
<polygon points="995.9,713.0 956.1,736.0 956.1,782.0 995.9,805.0 1035.8,782.0 1035.8,736.0" fill="none" stroke="#2E4156" stroke-width="1.1" opacity="0.5"/>
<polygon points="1075.6,713.0 1035.8,736.0 1035.8,782.0 1075.6,805.0 1115.4,782.0 1115.4,736.0" fill="none" stroke="#2E4156" stroke-width="1.1" opacity="0.5"/>
<polygon points="1155.3,713.0 1115.4,736.0 1115.4,782.0 1155.3,805.0 1195.1,782.0 1195.1,736.0" fill="none" stroke="#2E4156" stroke-width="1.1" opacity="0.5"/>
<polygon points="1235.0,713.0 1195.1,736.0 1195.1,782.0 1235.0,805.0 1274.8,782.0 1274.8,736.0" fill="none" stroke="#2E4156" stroke-width="1.1" opacity="0.5"/>
<polygon points="1314.6,713.0 1274.8,736.0 1274.8,782.0 1314.6,805.0 1354.5,782.0 1354.5,736.0" fill="none" stroke="#2E4156" stroke-width="1.1" opacity="0.5"/>
<polygon points="1394.3,713.0 1354.5,736.0 1354.5,782.0 1394.3,805.0 1434.1,782.0 1434.1,736.0" fill="none" stroke="#2E4156" stroke-width="1.1" opacity="0.5"/>
<polygon points="1474.0,713.0 1434.1,736.0 1434.1,782.0 1474.0,805.0 1513.8,782.0 1513.8,736.0" fill="none" stroke="#2E4156" stroke-width="1.1" opacity="0.5"/>
<polygon points="1553.6,713.0 1513.8,736.0 1513.8,782.0 1553.6,805.0 1593.5,782.0 1593.5,736.0" fill="none" stroke="#2E4156" stroke-width="1.1" opacity="0.5"/>
<polygon points="1633.3,713.0 1593.5,736.0 1593.5,782.0 1633.3,805.0 1673.2,782.0 1673.2,736.0" fill="none" stroke="#2E4156" stroke-width="1.1" opacity="0.5"/>
<polygon points="1713.0,713.0 1673.2,736.0 1673.2,782.0 1713.0,805.0 1752.8,782.0 1752.8,736.0" fill="none" stroke="#2E4156" stroke-width="1.1" opacity="0.5"/>
<polygon points="1792.7,713.0 1752.8,736.0 1752.8,782.0 1792.7,805.0 1832.5,782.0 1832.5,736.0" fill="none" stroke="#2E4156" stroke-width="1.1" opacity="0.5"/>
<polygon points="1872.3,713.0 1832.5,736.0 1832.5,782.0 1872.3,805.0 1912.2,782.0 1912.2,736.0" fill="none" stroke="#2E4156" stroke-width="1.1" opacity="0.5"/>
<polygon points="1952.0,713.0 1912.2,736.0 1912.2,782.0 1952.0,805.0 1991.9,782.0 1991.9,736.0" fill="none" stroke="#2E4156" stroke-width="1.1" opacity="0.5"/>
<polygon points="2031.7,713.0 1991.9,736.0 1991.9,782.0 2031.7,805.0 2071.5,782.0 2071.5,736.0" fill="none" stroke="#2E4156" stroke-width="1.1" opacity="0.5"/>
<polygon points="2111.4,713.0 2071.5,736.0 2071.5,782.0 2111.4,805.0 2151.2,782.0 2151.2,736.0" fill="none" stroke="#2E4156" stroke-width="1.1" opacity="0.5"/>
<polygon points="-79.7,782.0 -119.5,805.0 -119.5,851.0 -79.7,874.0 -39.8,851.0 -39.8,805.0" fill="none" stroke="#2E4156" stroke-width="1.1" opacity="0.5"/>
<polygon points="0.0,782.0 -39.8,805.0 -39.8,851.0 -0.0,874.0 39.8,851.0 39.8,805.0" fill="none" stroke="#2E4156" stroke-width="1.1" opacity="0.5"/>
<polygon points="79.7,782.0 39.8,805.0 39.8,851.0 79.7,874.0 119.5,851.0 119.5,805.0" fill="none" stroke="#2E4156" stroke-width="1.1" opacity="0.5"/>
<polygon points="159.3,782.0 119.5,805.0 119.5,851.0 159.3,874.0 199.2,851.0 199.2,805.0" fill="none" stroke="#2E4156" stroke-width="1.1" opacity="0.5"/>
<polygon points="239.0,782.0 199.2,805.0 199.2,851.0 239.0,874.0 278.9,851.0 278.9,805.0" fill="none" stroke="#2E4156" stroke-width="1.1" opacity="0.5"/>
<polygon points="318.7,782.0 278.9,805.0 278.9,851.0 318.7,874.0 358.5,851.0 358.5,805.0" fill="none" stroke="#2E4156" stroke-width="1.1" opacity="0.5"/>
<polygon points="398.4,782.0 358.5,805.0 358.5,851.0 398.4,874.0 438.2,851.0 438.2,805.0" fill="none" stroke="#2E4156" stroke-width="1.1" opacity="0.5"/>
<polygon points="478.0,782.0 438.2,805.0 438.2,851.0 478.0,874.0 517.9,851.0 517.9,805.0" fill="none" stroke="#2E4156" stroke-width="1.1" opacity="0.5"/>
<polygon points="557.7,782.0 517.9,805.0 517.9,851.0 557.7,874.0 597.6,851.0 597.6,805.0" fill="none" stroke="#2E4156" stroke-width="1.1" opacity="0.5"/>
<polygon points="637.4,782.0 597.6,805.0 597.6,851.0 637.4,874.0 677.2,851.0 677.2,805.0" fill="none" stroke="#2E4156" stroke-width="1.1" opacity="0.5"/>
<polygon points="717.1,782.0 677.2,805.0 677.2,851.0 717.1,874.0 756.9,851.0 756.9,805.0" fill="none" stroke="#2E4156" stroke-width="1.1" opacity="0.5"/>
<polygon points="796.7,782.0 756.9,805.0 756.9,851.0 796.7,874.0 836.6,851.0 836.6,805.0" fill="none" stroke="#2E4156" stroke-width="1.1" opacity="0.5"/>
<polygon points="876.4,782.0 836.6,805.0 836.6,851.0 876.4,874.0 916.3,851.0 916.3,805.0" fill="none" stroke="#2E4156" stroke-width="1.1" opacity="0.5"/>
<polygon points="956.1,783.0 917.1,805.5 917.1,850.5 956.1,873.0 995.1,850.5 995.1,805.5" fill="none" stroke="#E69F00" stroke-width="1.6" opacity="0.19"/>
<polygon points="956.1,782.0 916.3,805.0 916.3,851.0 956.1,874.0 995.9,851.0 995.9,805.0" fill="none" stroke="#2E4156" stroke-width="1.1" opacity="0.5"/>
<polygon points="1035.8,782.0 995.9,805.0 995.9,851.0 1035.8,874.0 1075.6,851.0 1075.6,805.0" fill="none" stroke="#2E4156" stroke-width="1.1" opacity="0.5"/>
<polygon points="1115.4,782.0 1075.6,805.0 1075.6,851.0 1115.4,874.0 1155.3,851.0 1155.3,805.0" fill="none" stroke="#2E4156" stroke-width="1.1" opacity="0.5"/>
<polygon points="1195.1,782.0 1155.3,805.0 1155.3,851.0 1195.1,874.0 1235.0,851.0 1235.0,805.0" fill="none" stroke="#2E4156" stroke-width="1.1" opacity="0.5"/>
<polygon points="1274.8,782.0 1235.0,805.0 1235.0,851.0 1274.8,874.0 1314.6,851.0 1314.6,805.0" fill="none" stroke="#2E4156" stroke-width="1.1" opacity="0.5"/>
<polygon points="1354.5,783.0 1315.5,805.5 1315.5,850.5 1354.5,873.0 1393.4,850.5 1393.4,805.5" fill="none" stroke="#E69F00" stroke-width="1.6" opacity="0.26"/>
<polygon points="1354.5,782.0 1314.6,805.0 1314.6,851.0 1354.5,874.0 1394.3,851.0 1394.3,805.0" fill="none" stroke="#2E4156" stroke-width="1.1" opacity="0.5"/>
<polygon points="1434.1,782.0 1394.3,805.0 1394.3,851.0 1434.1,874.0 1474.0,851.0 1474.0,805.0" fill="none" stroke="#2E4156" stroke-width="1.1" opacity="0.5"/>
<polygon points="1513.8,782.0 1474.0,805.0 1474.0,851.0 1513.8,874.0 1553.6,851.0 1553.6,805.0" fill="none" stroke="#2E4156" stroke-width="1.1" opacity="0.5"/>
<polygon points="1593.5,782.0 1553.6,805.0 1553.6,851.0 1593.5,874.0 1633.3,851.0 1633.3,805.0" fill="none" stroke="#2E4156" stroke-width="1.1" opacity="0.5"/>
<polygon points="1673.2,782.0 1633.3,805.0 1633.3,851.0 1673.2,874.0 1713.0,851.0 1713.0,805.0" fill="none" stroke="#2E4156" stroke-width="1.1" opacity="0.5"/>
<polygon points="1752.8,782.0 1713.0,805.0 1713.0,851.0 1752.8,874.0 1792.7,851.0 1792.7,805.0" fill="none" stroke="#2E4156" stroke-width="1.1" opacity="0.5"/>
<polygon points="1832.5,783.0 1793.5,805.5 1793.5,850.5 1832.5,873.0 1871.5,850.5 1871.5,805.5" fill="none" stroke="#56B4E9" stroke-width="1.4" opacity="0.19"/>
<polygon points="1832.5,782.0 1792.7,805.0 1792.7,851.0 1832.5,874.0 1872.3,851.0 1872.3,805.0" fill="none" stroke="#2E4156" stroke-width="1.1" opacity="0.5"/>
<polygon points="1912.2,782.0 1872.3,805.0 1872.3,851.0 1912.2,874.0 1952.0,851.0 1952.0,805.0" fill="none" stroke="#2E4156" stroke-width="1.1" opacity="0.5"/>
<polygon points="1991.9,782.0 1952.0,805.0 1952.0,851.0 1991.9,874.0 2031.7,851.0 2031.7,805.0" fill="none" stroke="#2E4156" stroke-width="1.1" opacity="0.5"/>
<polygon points="2071.5,782.0 2031.7,805.0 2031.7,851.0 2071.5,874.0 2111.4,851.0 2111.4,805.0" fill="none" stroke="#2E4156" stroke-width="1.1" opacity="0.5"/>
<polygon points="-39.8,851.0 -79.7,874.0 -79.7,920.0 -39.8,943.0 -0.0,920.0 0.0,874.0" fill="none" stroke="#2E4156" stroke-width="1.1" opacity="0.5"/>
<polygon points="39.8,851.0 -0.0,874.0 0.0,920.0 39.8,943.0 79.7,920.0 79.7,874.0" fill="none" stroke="#2E4156" stroke-width="1.1" opacity="0.5"/>
<polygon points="119.5,851.0 79.7,874.0 79.7,920.0 119.5,943.0 159.3,920.0 159.3,874.0" fill="none" stroke="#2E4156" stroke-width="1.1" opacity="0.5"/>
<polygon points="199.2,851.0 159.3,874.0 159.3,920.0 199.2,943.0 239.0,920.0 239.0,874.0" fill="none" stroke="#2E4156" stroke-width="1.1" opacity="0.5"/>
<polygon points="278.9,851.0 239.0,874.0 239.0,920.0 278.9,943.0 318.7,920.0 318.7,874.0" fill="none" stroke="#2E4156" stroke-width="1.1" opacity="0.5"/>
<polygon points="358.5,851.0 318.7,874.0 318.7,920.0 358.5,943.0 398.4,920.0 398.4,874.0" fill="none" stroke="#2E4156" stroke-width="1.1" opacity="0.5"/>
<polygon points="438.2,851.0 398.4,874.0 398.4,920.0 438.2,943.0 478.0,920.0 478.0,874.0" fill="none" stroke="#2E4156" stroke-width="1.1" opacity="0.5"/>
<polygon points="517.9,851.0 478.0,874.0 478.0,920.0 517.9,943.0 557.7,920.0 557.7,874.0" fill="none" stroke="#2E4156" stroke-width="1.1" opacity="0.5"/>
<polygon points="597.6,851.0 557.7,874.0 557.7,920.0 597.6,943.0 637.4,920.0 637.4,874.0" fill="none" stroke="#2E4156" stroke-width="1.1" opacity="0.5"/>
<polygon points="677.2,851.0 637.4,874.0 637.4,920.0 677.2,943.0 717.1,920.0 717.1,874.0" fill="none" stroke="#2E4156" stroke-width="1.1" opacity="0.5"/>
<polygon points="756.9,852.0 717.9,874.5 717.9,919.5 756.9,942.0 795.9,919.5 795.9,874.5" fill="#56B4E9" opacity="0.05" stroke="none"/>
<polygon points="756.9,851.0 717.1,874.0 717.1,920.0 756.9,943.0 796.7,920.0 796.7,874.0" fill="none" stroke="#2E4156" stroke-width="1.1" opacity="0.5"/>
<polygon points="836.6,851.0 796.7,874.0 796.7,920.0 836.6,943.0 876.4,920.0 876.4,874.0" fill="none" stroke="#2E4156" stroke-width="1.1" opacity="0.5"/>
<polygon points="916.3,851.0 876.4,874.0 876.4,920.0 916.3,943.0 956.1,920.0 956.1,874.0" fill="none" stroke="#2E4156" stroke-width="1.1" opacity="0.5"/>
<polygon points="995.9,851.0 956.1,874.0 956.1,920.0 995.9,943.0 1035.8,920.0 1035.8,874.0" fill="none" stroke="#2E4156" stroke-width="1.1" opacity="0.5"/>
<polygon points="1075.6,851.0 1035.8,874.0 1035.8,920.0 1075.6,943.0 1115.4,920.0 1115.4,874.0" fill="none" stroke="#2E4156" stroke-width="1.1" opacity="0.5"/>
<polygon points="1155.3,851.0 1115.4,874.0 1115.4,920.0 1155.3,943.0 1195.1,920.0 1195.1,874.0" fill="none" stroke="#2E4156" stroke-width="1.1" opacity="0.5"/>
<polygon points="1235.0,851.0 1195.1,874.0 1195.1,920.0 1235.0,943.0 1274.8,920.0 1274.8,874.0" fill="none" stroke="#2E4156" stroke-width="1.1" opacity="0.5"/>
<polygon points="1314.6,851.0 1274.8,874.0 1274.8,920.0 1314.6,943.0 1354.5,920.0 1354.5,874.0" fill="none" stroke="#2E4156" stroke-width="1.1" opacity="0.5"/>
<polygon points="1394.3,851.0 1354.5,874.0 1354.5,920.0 1394.3,943.0 1434.1,920.0 1434.1,874.0" fill="none" stroke="#2E4156" stroke-width="1.1" opacity="0.5"/>
<polygon points="1474.0,851.0 1434.1,874.0 1434.1,920.0 1474.0,943.0 1513.8,920.0 1513.8,874.0" fill="none" stroke="#2E4156" stroke-width="1.1" opacity="0.5"/>
<polygon points="1553.6,851.0 1513.8,874.0 1513.8,920.0 1553.6,943.0 1593.5,920.0 1593.5,874.0" fill="none" stroke="#2E4156" stroke-width="1.1" opacity="0.5"/>
<polygon points="1633.3,851.0 1593.5,874.0 1593.5,920.0 1633.3,943.0 1673.2,920.0 1673.2,874.0" fill="none" stroke="#2E4156" stroke-width="1.1" opacity="0.5"/>
<polygon points="1713.0,851.0 1673.2,874.0 1673.2,920.0 1713.0,943.0 1752.8,920.0 1752.8,874.0" fill="none" stroke="#2E4156" stroke-width="1.1" opacity="0.5"/>
<polygon points="1792.7,851.0 1752.8,874.0 1752.8,920.0 1792.7,943.0 1832.5,920.0 1832.5,874.0" fill="none" stroke="#2E4156" stroke-width="1.1" opacity="0.5"/>
<polygon points="1872.3,851.0 1832.5,874.0 1832.5,920.0 1872.3,943.0 1912.2,920.0 1912.2,874.0" fill="none" stroke="#2E4156" stroke-width="1.1" opacity="0.5"/>
<polygon points="1952.0,851.0 1912.2,874.0 1912.2,920.0 1952.0,943.0 1991.9,920.0 1991.9,874.0" fill="none" stroke="#2E4156" stroke-width="1.1" opacity="0.5"/>
<polygon points="2031.7,851.0 1991.9,874.0 1991.9,920.0 2031.7,943.0 2071.5,920.0 2071.5,874.0" fill="none" stroke="#2E4156" stroke-width="1.1" opacity="0.5"/>
<polygon points="2111.4,851.0 2071.5,874.0 2071.5,920.0 2111.4,943.0 2151.2,920.0 2151.2,874.0" fill="none" stroke="#2E4156" stroke-width="1.1" opacity="0.5"/>
<polygon points="-79.7,920.0 -119.5,943.0 -119.5,989.0 -79.7,1012.0 -39.8,989.0 -39.8,943.0" fill="none" stroke="#2E4156" stroke-width="1.1" opacity="0.5"/>
<polygon points="0.0,920.0 -39.8,943.0 -39.8,989.0 -0.0,1012.0 39.8,989.0 39.8,943.0" fill="none" stroke="#2E4156" stroke-width="1.1" opacity="0.5"/>
<polygon points="79.7,920.0 39.8,943.0 39.8,989.0 79.7,1012.0 119.5,989.0 119.5,943.0" fill="none" stroke="#2E4156" stroke-width="1.1" opacity="0.5"/>
<polygon points="159.3,921.0 120.4,943.5 120.4,988.5 159.3,1011.0 198.3,988.5 198.3,943.5" fill="none" stroke="#E69F00" stroke-width="1.6" opacity="0.23"/>
<polygon points="159.3,920.0 119.5,943.0 119.5,989.0 159.3,1012.0 199.2,989.0 199.2,943.0" fill="none" stroke="#2E4156" stroke-width="1.1" opacity="0.5"/>
<polygon points="239.0,920.0 199.2,943.0 199.2,989.0 239.0,1012.0 278.9,989.0 278.9,943.0" fill="none" stroke="#2E4156" stroke-width="1.1" opacity="0.5"/>
<polygon points="318.7,920.0 278.9,943.0 278.9,989.0 318.7,1012.0 358.5,989.0 358.5,943.0" fill="none" stroke="#2E4156" stroke-width="1.1" opacity="0.5"/>
<polygon points="398.4,920.0 358.5,943.0 358.5,989.0 398.4,1012.0 438.2,989.0 438.2,943.0" fill="none" stroke="#2E4156" stroke-width="1.1" opacity="0.5"/>
<polygon points="478.0,920.0 438.2,943.0 438.2,989.0 478.0,1012.0 517.9,989.0 517.9,943.0" fill="none" stroke="#2E4156" stroke-width="1.1" opacity="0.5"/>
<polygon points="557.7,920.0 517.9,943.0 517.9,989.0 557.7,1012.0 597.6,989.0 597.6,943.0" fill="none" stroke="#2E4156" stroke-width="1.1" opacity="0.5"/>
<polygon points="637.4,921.0 598.4,943.5 598.4,988.5 637.4,1011.0 676.4,988.5 676.4,943.5" fill="none" stroke="#E69F00" stroke-width="1.6" opacity="0.39"/>
<polygon points="637.4,920.0 597.6,943.0 597.6,989.0 637.4,1012.0 677.2,989.0 677.2,943.0" fill="none" stroke="#2E4156" stroke-width="1.1" opacity="0.5"/>
<polygon points="717.1,920.0 677.2,943.0 677.2,989.0 717.1,1012.0 756.9,989.0 756.9,943.0" fill="none" stroke="#2E4156" stroke-width="1.1" opacity="0.5"/>
<polygon points="796.7,920.0 756.9,943.0 756.9,989.0 796.7,1012.0 836.6,989.0 836.6,943.0" fill="none" stroke="#2E4156" stroke-width="1.1" opacity="0.5"/>
<polygon points="876.4,920.0 836.6,943.0 836.6,989.0 876.4,1012.0 916.3,989.0 916.3,943.0" fill="none" stroke="#2E4156" stroke-width="1.1" opacity="0.5"/>
<polygon points="956.1,920.0 916.3,943.0 916.3,989.0 956.1,1012.0 995.9,989.0 995.9,943.0" fill="none" stroke="#2E4156" stroke-width="1.1" opacity="0.5"/>
<polygon points="1035.8,920.0 995.9,943.0 995.9,989.0 1035.8,1012.0 1075.6,989.0 1075.6,943.0" fill="none" stroke="#2E4156" stroke-width="1.1" opacity="0.5"/>
<polygon points="1115.4,920.0 1075.6,943.0 1075.6,989.0 1115.4,1012.0 1155.3,989.0 1155.3,943.0" fill="none" stroke="#2E4156" stroke-width="1.1" opacity="0.5"/>
<polygon points="1195.1,920.0 1155.3,943.0 1155.3,989.0 1195.1,1012.0 1235.0,989.0 1235.0,943.0" fill="none" stroke="#2E4156" stroke-width="1.1" opacity="0.5"/>
<polygon points="1274.8,920.0 1235.0,943.0 1235.0,989.0 1274.8,1012.0 1314.6,989.0 1314.6,943.0" fill="none" stroke="#2E4156" stroke-width="1.1" opacity="0.5"/>
<polygon points="1354.5,920.0 1314.6,943.0 1314.6,989.0 1354.5,1012.0 1394.3,989.0 1394.3,943.0" fill="none" stroke="#2E4156" stroke-width="1.1" opacity="0.5"/>
<polygon points="1434.1,920.0 1394.3,943.0 1394.3,989.0 1434.1,1012.0 1474.0,989.0 1474.0,943.0" fill="none" stroke="#2E4156" stroke-width="1.1" opacity="0.5"/>
<polygon points="1513.8,920.0 1474.0,943.0 1474.0,989.0 1513.8,1012.0 1553.6,989.0 1553.6,943.0" fill="none" stroke="#2E4156" stroke-width="1.1" opacity="0.5"/>
<polygon points="1593.5,920.0 1553.6,943.0 1553.6,989.0 1593.5,1012.0 1633.3,989.0 1633.3,943.0" fill="none" stroke="#2E4156" stroke-width="1.1" opacity="0.5"/>
<polygon points="1673.2,921.0 1634.2,943.5 1634.2,988.5 1673.2,1011.0 1712.1,988.5 1712.1,943.5" fill="none" stroke="#E69F00" stroke-width="1.6" opacity="0.35"/>
<polygon points="1673.2,920.0 1633.3,943.0 1633.3,989.0 1673.2,1012.0 1713.0,989.0 1713.0,943.0" fill="none" stroke="#2E4156" stroke-width="1.1" opacity="0.5"/>
<polygon points="1752.8,920.0 1713.0,943.0 1713.0,989.0 1752.8,1012.0 1792.7,989.0 1792.7,943.0" fill="none" stroke="#2E4156" stroke-width="1.1" opacity="0.5"/>
<polygon points="1832.5,920.0 1792.7,943.0 1792.7,989.0 1832.5,1012.0 1872.3,989.0 1872.3,943.0" fill="none" stroke="#2E4156" stroke-width="1.1" opacity="0.5"/>
<polygon points="1912.2,920.0 1872.3,943.0 1872.3,989.0 1912.2,1012.0 1952.0,989.0 1952.0,943.0" fill="none" stroke="#2E4156" stroke-width="1.1" opacity="0.5"/>
<polygon points="1991.9,920.0 1952.0,943.0 1952.0,989.0 1991.9,1012.0 2031.7,989.0 2031.7,943.0" fill="none" stroke="#2E4156" stroke-width="1.1" opacity="0.5"/>
<polygon points="2071.5,920.0 2031.7,943.0 2031.7,989.0 2071.5,1012.0 2111.4,989.0 2111.4,943.0" fill="none" stroke="#2E4156" stroke-width="1.1" opacity="0.5"/>
<polygon points="-39.8,989.0 -79.7,1012.0 -79.7,1058.0 -39.8,1081.0 -0.0,1058.0 0.0,1012.0" fill="none" stroke="#2E4156" stroke-width="1.1" opacity="0.5"/>
<polygon points="39.8,989.0 -0.0,1012.0 0.0,1058.0 39.8,1081.0 79.7,1058.0 79.7,1012.0" fill="none" stroke="#2E4156" stroke-width="1.1" opacity="0.5"/>
<polygon points="119.5,990.0 80.5,1012.5 80.5,1057.5 119.5,1080.0 158.5,1057.5 158.5,1012.5" fill="none" stroke="#E69F00" stroke-width="1.6" opacity="0.26"/>
<polygon points="119.5,989.0 79.7,1012.0 79.7,1058.0 119.5,1081.0 159.3,1058.0 159.3,1012.0" fill="none" stroke="#2E4156" stroke-width="1.1" opacity="0.5"/>
<polygon points="199.2,989.0 159.3,1012.0 159.3,1058.0 199.2,1081.0 239.0,1058.0 239.0,1012.0" fill="none" stroke="#2E4156" stroke-width="1.1" opacity="0.5"/>
<polygon points="278.9,989.0 239.0,1012.0 239.0,1058.0 278.9,1081.0 318.7,1058.0 318.7,1012.0" fill="none" stroke="#2E4156" stroke-width="1.1" opacity="0.5"/>
<polygon points="358.5,989.0 318.7,1012.0 318.7,1058.0 358.5,1081.0 398.4,1058.0 398.4,1012.0" fill="none" stroke="#2E4156" stroke-width="1.1" opacity="0.5"/>
<polygon points="438.2,990.0 399.2,1012.5 399.2,1057.5 438.2,1080.0 477.2,1057.5 477.2,1012.5" fill="none" stroke="#56B4E9" stroke-width="1.4" opacity="0.28"/>
<polygon points="438.2,989.0 398.4,1012.0 398.4,1058.0 438.2,1081.0 478.0,1058.0 478.0,1012.0" fill="none" stroke="#2E4156" stroke-width="1.1" opacity="0.5"/>
<polygon points="517.9,989.0 478.0,1012.0 478.0,1058.0 517.9,1081.0 557.7,1058.0 557.7,1012.0" fill="none" stroke="#2E4156" stroke-width="1.1" opacity="0.5"/>
<polygon points="597.6,989.0 557.7,1012.0 557.7,1058.0 597.6,1081.0 637.4,1058.0 637.4,1012.0" fill="none" stroke="#2E4156" stroke-width="1.1" opacity="0.5"/>
<polygon points="677.2,989.0 637.4,1012.0 637.4,1058.0 677.2,1081.0 717.1,1058.0 717.1,1012.0" fill="none" stroke="#2E4156" stroke-width="1.1" opacity="0.5"/>
<polygon points="756.9,989.0 717.1,1012.0 717.1,1058.0 756.9,1081.0 796.7,1058.0 796.7,1012.0" fill="none" stroke="#2E4156" stroke-width="1.1" opacity="0.5"/>
<polygon points="836.6,989.0 796.7,1012.0 796.7,1058.0 836.6,1081.0 876.4,1058.0 876.4,1012.0" fill="none" stroke="#2E4156" stroke-width="1.1" opacity="0.5"/>
<polygon points="916.3,989.0 876.4,1012.0 876.4,1058.0 916.3,1081.0 956.1,1058.0 956.1,1012.0" fill="none" stroke="#2E4156" stroke-width="1.1" opacity="0.5"/>
<polygon points="995.9,989.0 956.1,1012.0 956.1,1058.0 995.9,1081.0 1035.8,1058.0 1035.8,1012.0" fill="none" stroke="#2E4156" stroke-width="1.1" opacity="0.5"/>
<polygon points="1075.6,989.0 1035.8,1012.0 1035.8,1058.0 1075.6,1081.0 1115.4,1058.0 1115.4,1012.0" fill="none" stroke="#2E4156" stroke-width="1.1" opacity="0.5"/>
<polygon points="1155.3,989.0 1115.4,1012.0 1115.4,1058.0 1155.3,1081.0 1195.1,1058.0 1195.1,1012.0" fill="none" stroke="#2E4156" stroke-width="1.1" opacity="0.5"/>
<polygon points="1235.0,989.0 1195.1,1012.0 1195.1,1058.0 1235.0,1081.0 1274.8,1058.0 1274.8,1012.0" fill="none" stroke="#2E4156" stroke-width="1.1" opacity="0.5"/>
<polygon points="1314.6,989.0 1274.8,1012.0 1274.8,1058.0 1314.6,1081.0 1354.5,1058.0 1354.5,1012.0" fill="none" stroke="#2E4156" stroke-width="1.1" opacity="0.5"/>
<polygon points="1394.3,989.0 1354.5,1012.0 1354.5,1058.0 1394.3,1081.0 1434.1,1058.0 1434.1,1012.0" fill="none" stroke="#2E4156" stroke-width="1.1" opacity="0.5"/>
<polygon points="1474.0,989.0 1434.1,1012.0 1434.1,1058.0 1474.0,1081.0 1513.8,1058.0 1513.8,1012.0" fill="none" stroke="#2E4156" stroke-width="1.1" opacity="0.5"/>
<polygon points="1553.6,989.0 1513.8,1012.0 1513.8,1058.0 1553.6,1081.0 1593.5,1058.0 1593.5,1012.0" fill="none" stroke="#2E4156" stroke-width="1.1" opacity="0.5"/>
<polygon points="1633.3,989.0 1593.5,1012.0 1593.5,1058.0 1633.3,1081.0 1673.2,1058.0 1673.2,1012.0" fill="none" stroke="#2E4156" stroke-width="1.1" opacity="0.5"/>
<polygon points="1713.0,989.0 1673.2,1012.0 1673.2,1058.0 1713.0,1081.0 1752.8,1058.0 1752.8,1012.0" fill="none" stroke="#2E4156" stroke-width="1.1" opacity="0.5"/>
<polygon points="1792.7,989.0 1752.8,1012.0 1752.8,1058.0 1792.7,1081.0 1832.5,1058.0 1832.5,1012.0" fill="none" stroke="#2E4156" stroke-width="1.1" opacity="0.5"/>
<polygon points="1872.3,989.0 1832.5,1012.0 1832.5,1058.0 1872.3,1081.0 1912.2,1058.0 1912.2,1012.0" fill="none" stroke="#2E4156" stroke-width="1.1" opacity="0.5"/>
<polygon points="1952.0,989.0 1912.2,1012.0 1912.2,1058.0 1952.0,1081.0 1991.9,1058.0 1991.9,1012.0" fill="none" stroke="#2E4156" stroke-width="1.1" opacity="0.5"/>
<polygon points="2031.7,989.0 1991.9,1012.0 1991.9,1058.0 2031.7,1081.0 2071.5,1058.0 2071.5,1012.0" fill="none" stroke="#2E4156" stroke-width="1.1" opacity="0.5"/>
<polygon points="2111.4,989.0 2071.5,1012.0 2071.5,1058.0 2111.4,1081.0 2151.2,1058.0 2151.2,1012.0" fill="none" stroke="#2E4156" stroke-width="1.1" opacity="0.5"/>
<polygon points="-79.7,1058.0 -119.5,1081.0 -119.5,1127.0 -79.7,1150.0 -39.8,1127.0 -39.8,1081.0" fill="none" stroke="#2E4156" stroke-width="1.1" opacity="0.5"/>
<polygon points="0.0,1058.0 -39.8,1081.0 -39.8,1127.0 -0.0,1150.0 39.8,1127.0 39.8,1081.0" fill="none" stroke="#2E4156" stroke-width="1.1" opacity="0.5"/>
<polygon points="79.7,1058.0 39.8,1081.0 39.8,1127.0 79.7,1150.0 119.5,1127.0 119.5,1081.0" fill="none" stroke="#2E4156" stroke-width="1.1" opacity="0.5"/>
<polygon points="159.3,1058.0 119.5,1081.0 119.5,1127.0 159.3,1150.0 199.2,1127.0 199.2,1081.0" fill="none" stroke="#2E4156" stroke-width="1.1" opacity="0.5"/>
<polygon points="239.0,1058.0 199.2,1081.0 199.2,1127.0 239.0,1150.0 278.9,1127.0 278.9,1081.0" fill="none" stroke="#2E4156" stroke-width="1.1" opacity="0.5"/>
<polygon points="318.7,1059.0 279.7,1081.5 279.7,1126.5 318.7,1149.0 357.7,1126.5 357.7,1081.5" fill="#56B4E9" opacity="0.05" stroke="none"/>
<polygon points="318.7,1058.0 278.9,1081.0 278.9,1127.0 318.7,1150.0 358.5,1127.0 358.5,1081.0" fill="none" stroke="#2E4156" stroke-width="1.1" opacity="0.5"/>
<polygon points="398.4,1058.0 358.5,1081.0 358.5,1127.0 398.4,1150.0 438.2,1127.0 438.2,1081.0" fill="none" stroke="#2E4156" stroke-width="1.1" opacity="0.5"/>
<polygon points="478.0,1058.0 438.2,1081.0 438.2,1127.0 478.0,1150.0 517.9,1127.0 517.9,1081.0" fill="none" stroke="#2E4156" stroke-width="1.1" opacity="0.5"/>
<polygon points="557.7,1058.0 517.9,1081.0 517.9,1127.0 557.7,1150.0 597.6,1127.0 597.6,1081.0" fill="none" stroke="#2E4156" stroke-width="1.1" opacity="0.5"/>
<polygon points="637.4,1058.0 597.6,1081.0 597.6,1127.0 637.4,1150.0 677.2,1127.0 677.2,1081.0" fill="none" stroke="#2E4156" stroke-width="1.1" opacity="0.5"/>
<polygon points="717.1,1058.0 677.2,1081.0 677.2,1127.0 717.1,1150.0 756.9,1127.0 756.9,1081.0" fill="none" stroke="#2E4156" stroke-width="1.1" opacity="0.5"/>
<polygon points="796.7,1058.0 756.9,1081.0 756.9,1127.0 796.7,1150.0 836.6,1127.0 836.6,1081.0" fill="none" stroke="#2E4156" stroke-width="1.1" opacity="0.5"/>
<polygon points="876.4,1058.0 836.6,1081.0 836.6,1127.0 876.4,1150.0 916.3,1127.0 916.3,1081.0" fill="none" stroke="#2E4156" stroke-width="1.1" opacity="0.5"/>
<polygon points="956.1,1058.0 916.3,1081.0 916.3,1127.0 956.1,1150.0 995.9,1127.0 995.9,1081.0" fill="none" stroke="#2E4156" stroke-width="1.1" opacity="0.5"/>
<polygon points="1035.8,1058.0 995.9,1081.0 995.9,1127.0 1035.8,1150.0 1075.6,1127.0 1075.6,1081.0" fill="none" stroke="#2E4156" stroke-width="1.1" opacity="0.5"/>
<polygon points="1115.4,1058.0 1075.6,1081.0 1075.6,1127.0 1115.4,1150.0 1155.3,1127.0 1155.3,1081.0" fill="none" stroke="#2E4156" stroke-width="1.1" opacity="0.5"/>
<polygon points="1195.1,1058.0 1155.3,1081.0 1155.3,1127.0 1195.1,1150.0 1235.0,1127.0 1235.0,1081.0" fill="none" stroke="#2E4156" stroke-width="1.1" opacity="0.5"/>
<polygon points="1274.8,1058.0 1235.0,1081.0 1235.0,1127.0 1274.8,1150.0 1314.6,1127.0 1314.6,1081.0" fill="none" stroke="#2E4156" stroke-width="1.1" opacity="0.5"/>
<polygon points="1354.5,1058.0 1314.6,1081.0 1314.6,1127.0 1354.5,1150.0 1394.3,1127.0 1394.3,1081.0" fill="none" stroke="#2E4156" stroke-width="1.1" opacity="0.5"/>
<polygon points="1434.1,1058.0 1394.3,1081.0 1394.3,1127.0 1434.1,1150.0 1474.0,1127.0 1474.0,1081.0" fill="none" stroke="#2E4156" stroke-width="1.1" opacity="0.5"/>
<polygon points="1513.8,1058.0 1474.0,1081.0 1474.0,1127.0 1513.8,1150.0 1553.6,1127.0 1553.6,1081.0" fill="none" stroke="#2E4156" stroke-width="1.1" opacity="0.5"/>
<polygon points="1593.5,1058.0 1553.6,1081.0 1553.6,1127.0 1593.5,1150.0 1633.3,1127.0 1633.3,1081.0" fill="none" stroke="#2E4156" stroke-width="1.1" opacity="0.5"/>
<polygon points="1673.2,1058.0 1633.3,1081.0 1633.3,1127.0 1673.2,1150.0 1713.0,1127.0 1713.0,1081.0" fill="none" stroke="#2E4156" stroke-width="1.1" opacity="0.5"/>
<polygon points="1752.8,1058.0 1713.0,1081.0 1713.0,1127.0 1752.8,1150.0 1792.7,1127.0 1792.7,1081.0" fill="none" stroke="#2E4156" stroke-width="1.1" opacity="0.5"/>
<polygon points="1832.5,1058.0 1792.7,1081.0 1792.7,1127.0 1832.5,1150.0 1872.3,1127.0 1872.3,1081.0" fill="none" stroke="#2E4156" stroke-width="1.1" opacity="0.5"/>
<polygon points="1912.2,1058.0 1872.3,1081.0 1872.3,1127.0 1912.2,1150.0 1952.0,1127.0 1952.0,1081.0" fill="none" stroke="#2E4156" stroke-width="1.1" opacity="0.5"/>
<polygon points="1991.9,1058.0 1952.0,1081.0 1952.0,1127.0 1991.9,1150.0 2031.7,1127.0 2031.7,1081.0" fill="none" stroke="#2E4156" stroke-width="1.1" opacity="0.5"/>
<polygon points="2071.5,1058.0 2031.7,1081.0 2031.7,1127.0 2071.5,1150.0 2111.4,1127.0 2111.4,1081.0" fill="none" stroke="#2E4156" stroke-width="1.1" opacity="0.5"/>
<polygon points="-39.8,1127.0 -79.7,1150.0 -79.7,1196.0 -39.8,1219.0 -0.0,1196.0 0.0,1150.0" fill="none" stroke="#2E4156" stroke-width="1.1" opacity="0.5"/>
<polygon points="39.8,1127.0 -0.0,1150.0 0.0,1196.0 39.8,1219.0 79.7,1196.0 79.7,1150.0" fill="none" stroke="#2E4156" stroke-width="1.1" opacity="0.5"/>
<polygon points="119.5,1127.0 79.7,1150.0 79.7,1196.0 119.5,1219.0 159.3,1196.0 159.3,1150.0" fill="none" stroke="#2E4156" stroke-width="1.1" opacity="0.5"/>
<polygon points="199.2,1127.0 159.3,1150.0 159.3,1196.0 199.2,1219.0 239.0,1196.0 239.0,1150.0" fill="none" stroke="#2E4156" stroke-width="1.1" opacity="0.5"/>
<polygon points="278.9,1127.0 239.0,1150.0 239.0,1196.0 278.9,1219.0 318.7,1196.0 318.7,1150.0" fill="none" stroke="#2E4156" stroke-width="1.1" opacity="0.5"/>
<polygon points="358.5,1128.0 319.6,1150.5 319.6,1195.5 358.5,1218.0 397.5,1195.5 397.5,1150.5" fill="#56B4E9" opacity="0.05" stroke="none"/>
<polygon points="358.5,1127.0 318.7,1150.0 318.7,1196.0 358.5,1219.0 398.4,1196.0 398.4,1150.0" fill="none" stroke="#2E4156" stroke-width="1.1" opacity="0.5"/>
<polygon points="438.2,1127.0 398.4,1150.0 398.4,1196.0 438.2,1219.0 478.0,1196.0 478.0,1150.0" fill="none" stroke="#2E4156" stroke-width="1.1" opacity="0.5"/>
<polygon points="517.9,1127.0 478.0,1150.0 478.0,1196.0 517.9,1219.0 557.7,1196.0 557.7,1150.0" fill="none" stroke="#2E4156" stroke-width="1.1" opacity="0.5"/>
<polygon points="597.6,1127.0 557.7,1150.0 557.7,1196.0 597.6,1219.0 637.4,1196.0 637.4,1150.0" fill="none" stroke="#2E4156" stroke-width="1.1" opacity="0.5"/>
<polygon points="677.2,1127.0 637.4,1150.0 637.4,1196.0 677.2,1219.0 717.1,1196.0 717.1,1150.0" fill="none" stroke="#2E4156" stroke-width="1.1" opacity="0.5"/>
<polygon points="756.9,1127.0 717.1,1150.0 717.1,1196.0 756.9,1219.0 796.7,1196.0 796.7,1150.0" fill="none" stroke="#2E4156" stroke-width="1.1" opacity="0.5"/>
<polygon points="836.6,1127.0 796.7,1150.0 796.7,1196.0 836.6,1219.0 876.4,1196.0 876.4,1150.0" fill="none" stroke="#2E4156" stroke-width="1.1" opacity="0.5"/>
<polygon points="916.3,1127.0 876.4,1150.0 876.4,1196.0 916.3,1219.0 956.1,1196.0 956.1,1150.0" fill="none" stroke="#2E4156" stroke-width="1.1" opacity="0.5"/>
<polygon points="995.9,1127.0 956.1,1150.0 956.1,1196.0 995.9,1219.0 1035.8,1196.0 1035.8,1150.0" fill="none" stroke="#2E4156" stroke-width="1.1" opacity="0.5"/>
<polygon points="1075.6,1127.0 1035.8,1150.0 1035.8,1196.0 1075.6,1219.0 1115.4,1196.0 1115.4,1150.0" fill="none" stroke="#2E4156" stroke-width="1.1" opacity="0.5"/>
<polygon points="1155.3,1127.0 1115.4,1150.0 1115.4,1196.0 1155.3,1219.0 1195.1,1196.0 1195.1,1150.0" fill="none" stroke="#2E4156" stroke-width="1.1" opacity="0.5"/>
<polygon points="1235.0,1127.0 1195.1,1150.0 1195.1,1196.0 1235.0,1219.0 1274.8,1196.0 1274.8,1150.0" fill="none" stroke="#2E4156" stroke-width="1.1" opacity="0.5"/>
<polygon points="1314.6,1127.0 1274.8,1150.0 1274.8,1196.0 1314.6,1219.0 1354.5,1196.0 1354.5,1150.0" fill="none" stroke="#2E4156" stroke-width="1.1" opacity="0.5"/>
<polygon points="1394.3,1127.0 1354.5,1150.0 1354.5,1196.0 1394.3,1219.0 1434.1,1196.0 1434.1,1150.0" fill="none" stroke="#2E4156" stroke-width="1.1" opacity="0.5"/>
<polygon points="1474.0,1127.0 1434.1,1150.0 1434.1,1196.0 1474.0,1219.0 1513.8,1196.0 1513.8,1150.0" fill="none" stroke="#2E4156" stroke-width="1.1" opacity="0.5"/>
<polygon points="1553.6,1127.0 1513.8,1150.0 1513.8,1196.0 1553.6,1219.0 1593.5,1196.0 1593.5,1150.0" fill="none" stroke="#2E4156" stroke-width="1.1" opacity="0.5"/>
<polygon points="1633.3,1128.0 1594.4,1150.5 1594.4,1195.5 1633.3,1218.0 1672.3,1195.5 1672.3,1150.5" fill="#56B4E9" opacity="0.05" stroke="none"/>
<polygon points="1633.3,1127.0 1593.5,1150.0 1593.5,1196.0 1633.3,1219.0 1673.2,1196.0 1673.2,1150.0" fill="none" stroke="#2E4156" stroke-width="1.1" opacity="0.5"/>
<polygon points="1713.0,1127.0 1673.2,1150.0 1673.2,1196.0 1713.0,1219.0 1752.8,1196.0 1752.8,1150.0" fill="none" stroke="#2E4156" stroke-width="1.1" opacity="0.5"/>
<polygon points="1792.7,1127.0 1752.8,1150.0 1752.8,1196.0 1792.7,1219.0 1832.5,1196.0 1832.5,1150.0" fill="none" stroke="#2E4156" stroke-width="1.1" opacity="0.5"/>
<polygon points="1872.3,1127.0 1832.5,1150.0 1832.5,1196.0 1872.3,1219.0 1912.2,1196.0 1912.2,1150.0" fill="none" stroke="#2E4156" stroke-width="1.1" opacity="0.5"/>
<polygon points="1952.0,1128.0 1913.1,1150.5 1913.1,1195.5 1952.0,1218.0 1991.0,1195.5 1991.0,1150.5" fill="none" stroke="#56B4E9" stroke-width="1.4" opacity="0.15"/>
<polygon points="1952.0,1127.0 1912.2,1150.0 1912.2,1196.0 1952.0,1219.0 1991.9,1196.0 1991.9,1150.0" fill="none" stroke="#2E4156" stroke-width="1.1" opacity="0.5"/>
<polygon points="2031.7,1127.0 1991.9,1150.0 1991.9,1196.0 2031.7,1219.0 2071.5,1196.0 2071.5,1150.0" fill="none" stroke="#2E4156" stroke-width="1.1" opacity="0.5"/>
<polygon points="2111.4,1127.0 2071.5,1150.0 2071.5,1196.0 2111.4,1219.0 2151.2,1196.0 2151.2,1150.0" fill="none" stroke="#2E4156" stroke-width="1.1" opacity="0.5"/>
</svg>
